/* XPM */
static char *mozicon16[] = {
/* columns rows colors chars-per-pixel */
"16 16 155 2 ",
"   c #00254F",
".  c #012352",
"X  c #002553",
"o  c #002356",
"O  c #002455",
"+  c #002457",
"@  c #002757",
"#  c #062757",
"$  c #052A53",
"%  c #002A56",
"&  c #052956",
"*  c #072A5A",
"=  c #002F59",
"-  c #002A5D",
";  c #002B5D",
":  c #022A5E",
">  c #002F5E",
",  c #0B2B5A",
"<  c #093358",
"1  c #103558",
"2  c #041C78",
"3  c #012262",
"4  c #002D65",
"5  c #082F65",
"6  c #00306B",
"7  c #02316C",
"8  c #023868",
"9  c #002572",
"0  c #00287F",
"q  c #003174",
"w  c #003873",
"e  c #063B7A",
"r  c #223A79",
"t  c #0B4175",
"y  c #00447F",
"u  c #08427A",
"i  c #144A7F",
"p  c #2E4E77",
"a  c #234F7B",
"s  c #173590",
"d  c #114781",
"f  c #194A85",
"g  c #08489B",
"h  c #035090",
"j  c #23578B",
"k  c #335489",
"l  c #305D89",
"z  c #325D8D",
"x  c #2B5F93",
"c  c #0B54A3",
"v  c #0854A6",
"b  c #0C56A7",
"n  c #0159A4",
"m  c #0A58AC",
"M  c #0E5DB2",
"N  c #265DA0",
"B  c #0766AB",
"V  c #2368B3",
"C  c #2576B3",
"Z  c #227ABC",
"A  c #3577BB",
"S  c #3B79B9",
"D  c #415B80",
"F  c #45658E",
"G  c #4F6C90",
"H  c #4C7092",
"J  c #637C9B",
"K  c #4F77A3",
"L  c #547AA7",
"P  c #567CA7",
"I  c #5D7CA0",
"U  c #4174BC",
"Y  c #2572C3",
"T  c #2776CA",
"R  c #2B7ACE",
"E  c #2C7ACC",
"W  c #2C7BD0",
"Q  c #337FD1",
"!  c #1C76E2",
"~  c #5D89B7",
"^  c #5686BA",
"/  c #5588BB",
"(  c #6B87A6",
")  c #6987AB",
"_  c #6D89A9",
"`  c #6C91BE",
"'  c #1580C4",
"]  c #3483C8",
"[  c #3D84CB",
"{  c #2E81D8",
"}  c #3582D3",
"|  c #3683D5",
" . c #3881D1",
".. c #3A89D7",
"X. c #3E8FE3",
"o. c #1DA1E0",
"O. c #25A2FA",
"+. c #508CC4",
"@. c #5187CD",
"#. c #418BDC",
"$. c #4B8FDA",
"%. c #5094DD",
"&. c #5B9ADA",
"*. c #6C93CB",
"=. c #719CC4",
"-. c #6398D2",
";. c #67A0DC",
":. c #78A2D0",
">. c #7AA5D1",
",. c #7EA9DE",
"<. c #7EB0DD",
"1. c #4C96E4",
"2. c #559AE1",
"3. c #5D9FE2",
"4. c #509DED",
"5. c #509EEF",
"6. c #4598F5",
"7. c #70AEED",
"8. c #73AFED",
"9. c #74B1ED",
"0. c #76B4EE",
"q. c #78B0EA",
"w. c #79BBFF",
"e. c #84A2BD",
"r. c #86A4C6",
"t. c #88A5C1",
"y. c #8CA6C2",
"u. c #99ADC5",
"i. c #90ACC8",
"p. c #9AB4C9",
"a. c #8BACD0",
"s. c #86B2DE",
"d. c #9CBDD6",
"f. c #A0B6CD",
"g. c #A9BDD3",
"h. c #83B1E0",
"j. c #B7CADA",
"k. c #B2CCDE",
"l. c #96C1E4",
"z. c #9DC6EB",
"x. c #98C7F5",
"c. c #9EC9F3",
"v. c #AAC8E5",
"b. c #A3C7EA",
"n. c #B8CEE3",
"m. c #A0C8F2",
"M. c #AED1F3",
"N. c #B3D4F0",
"B. c #CFE2F4",
"V. c #D0E5F6",
"C. c #E7EFF7",
"Z. c #E7F3FF",
"A. c #EAF3F8",
"S. c #F1F8FC",
"D. c None",
/* pixels */
"D.D.D.D.D.D.D.D.D.D.D.D.D.D.D.D.",
"D.D.D.D.D.b M m v c D.D.D.D.D.D.",
"D.D.D.D.E Y R T { } =.<.} V | D.",
"D.D.D.0.;.U @.2.1.3.k.z.9.4.4.D.",
"D.D.l.e.r 2 s ,.q.b.j.N.x.w.7.D.",
"D.D.d.) 3 9 0 *.V.u.k v.M.c.h.D.",
"D.D.s.~ ; 6 q ` A._ 4 H p.i.D.D.",
"D.D.a / l t u >.S.t.8 = < 1 D.D.",
"D.D.  ( f.x A 8.Z.n.d > % $ D.D.",
"D.D.X G g.P  .#.m.C.z ; % # D.D.",
"D.D.. p y.r.f e [ B.J + + * D.D.",
"D.D.# , I a.L 5 7 F D o g N D.D.",
"D.D.D.; j K :.^ d w y n ! $.D.D.",
"D.D.D.D.h Z +.-.&.] o.O.6.D.D.D.",
"D.D.D.D.D.B ' C S %...X.W D.D.D.",
"D.D.D.D.D.D.D.D.D.D.D.D.D.D.D.D."
};
