/* XPM */
static char *mozicon50[] = {
/* columns rows colors chars-per-pixel */
"48 48 256 2 ",
"   c #001E4D",
".  c #021B5E",
"X  c #00244D",
"o  c #01294D",
"O  c #0A2C4B",
"+  c #002453",
"@  c #002B53",
"#  c #00265A",
"$  c #002B5B",
"%  c #0A2D5A",
"&  c #0A2958",
"*  c #01315D",
"=  c #0A3159",
"-  c #10345A",
";  c #011A67",
":  c #001777",
">  c #002C63",
",  c #00246C",
"<  c #012D6A",
"1  c #062964",
"2  c #003364",
"3  c #0C3464",
"4  c #01356C",
"5  c #033B6D",
"6  c #0B346B",
"7  c #113665",
"8  c #133569",
"9  c #183C6A",
"0  c #002B7C",
"q  c #002775",
"w  c #013673",
"e  c #013A73",
"r  c #013479",
"t  c #073B78",
"y  c #183F70",
"u  c #223D73",
"i  c #1A436C",
"p  c #0A417B",
"a  c #074379",
"s  c #1A4375",
"d  c #19467A",
"f  c #22456D",
"g  c #284975",
"h  c #29507C",
"j  c #355579",
"k  c #314D71",
"l  c #001C83",
"z  c #002384",
"x  c #05288C",
"c  c #063684",
"v  c #17368A",
"b  c #253780",
"n  c #004685",
"m  c #094685",
"M  c #124B84",
"N  c #1C4D85",
"B  c #144C8C",
"V  c #19518A",
"C  c #024B9B",
"Z  c #084A95",
"A  c #035599",
"S  c #155598",
"D  c #114D91",
"F  c #22538B",
"G  c #2B5787",
"H  c #385C88",
"J  c #245C97",
"K  c #254495",
"L  c #2B649B",
"P  c #39699B",
"I  c #3A6288",
"U  c #024EA1",
"Y  c #0551A5",
"T  c #0A53A3",
"R  c #0D59AC",
"E  c #075AA5",
"W  c #145DAB",
"Q  c #1559A2",
"!  c #0C58B4",
"~  c #125FB2",
"^  c #2A5AA4",
"/  c #0164A8",
"(  c #1862AC",
")  c #046AB8",
"_  c #1A64B3",
"`  c #1964B6",
"'  c #1874B7",
"]  c #0E71AE",
"[  c #296AA8",
"{  c #3A6AA5",
"}  c #3B72AB",
"|  c #256AB6",
" . c #3A78BA",
".. c #2771B2",
"X. c #445B87",
"o. c #46678D",
"O. c #446A95",
"+. c #4A729A",
"@. c #597899",
"#. c #4577AB",
"$. c #567AA9",
"%. c #467BB5",
"&. c #045FC2",
"*. c #1B6EC7",
"=. c #047DC9",
"-. c #1D75C7",
";. c #0C6AD8",
":. c #1A73D3",
">. c #256DC1",
",. c #2B78CB",
"<. c #2674C6",
"1. c #347CC9",
"2. c #297ED9",
"3. c #327FD0",
"4. c #046CFB",
"5. c #0877FC",
"6. c #1675F4",
"7. c #136BE0",
"8. c #4A82BA",
"9. c #5987B9",
"0. c #6886A7",
"q. c #738CAC",
"w. c #7C93AC",
"e. c #678CB6",
"r. c #6993BD",
"t. c #7796B9",
"y. c #0484CA",
"u. c #0385D4",
"i. c #0197D9",
"p. c #3884CA",
"a. c #2E80D8",
"s. c #3582D3",
"d. c #3B85D4",
"f. c #3C8BDD",
"g. c #3987D9",
"h. c #0397E9",
"j. c #1494F5",
"k. c #2A87E7",
"l. c #388CE5",
"z. c #3A91EC",
"x. c #3698F7",
"c. c #2B8AF5",
"v. c #02BDFD",
"b. c #02A7F6",
"n. c #4B8ACC",
"m. c #4685C8",
"M. c #558CC5",
"N. c #458AD5",
"B. c #438DDC",
"V. c #498BD1",
"C. c #4C95DB",
"Z. c #5696D9",
"A. c #6994C3",
"S. c #6693C8",
"D. c #749AC3",
"F. c #6A9CD5",
"G. c #708FC3",
"H. c #77A7D8",
"J. c #75A4D2",
"K. c #4896EA",
"L. c #549BE6",
"P. c #499DF4",
"I. c #449CF8",
"U. c #519FF5",
"Y. c #498FE0",
"T. c #5DA3EC",
"R. c #4CA2FB",
"E. c #44A2F9",
"W. c #53A5FC",
"Q. c #56A9FE",
"!. c #5BABFE",
"~. c #57A4F4",
"^. c #4CB8FC",
"/. c #4FA6EE",
"(. c #6AA7E7",
"). c #74ADE7",
"_. c #7EB4EA",
"`. c #63ABF4",
"'. c #62AEFD",
"]. c #6AAEF7",
"[. c #65B1FF",
"{. c #6CB4FF",
"}. c #7AB6F3",
"|. c #7CB9F3",
" X c #73B6FC",
".X c #7ABBFD",
"XX c #74B6F7",
"oX c #03C8F9",
"OX c #00D9FE",
"+X c #4AC1FD",
"@X c #869CB6",
"#X c #87A3BC",
"$X c #8EA1B5",
"%X c #95ABBF",
"&X c #87A6C5",
"*X c #96AEC8",
"=X c #98B5CB",
"-X c #86AEDB",
";X c #8CB0D8",
":X c #9AB8D6",
">X c #92AED0",
",X c #A8BFD7",
"<X c #A6B6C8",
"1X c #8AB9E9",
"2X c #93BCE7",
"3X c #82BAF3",
"4X c #82BEFC",
"5X c #8BBFF4",
"6X c #9BC1DA",
"7X c #A3C4D5",
"8X c #A8C4D9",
"9X c #B5C7D9",
"0X c #B8D1DE",
"qX c #98C2E8",
"wX c #85C1FF",
"eX c #8CC4FE",
"rX c #92C7FD",
"tX c #95C9FD",
"yX c #9CCCFE",
"uX c #9AC8F3",
"iX c #AAC9E6",
"pX c #B7CFE4",
"aX c #B3D2EB",
"sX c #BCD4EC",
"dX c #BED7E6",
"fX c #A4CEF7",
"gX c #ABD4FC",
"hX c #A8D1F8",
"jX c #B2D6FB",
"kX c #B9D8F8",
"lX c #BFE1FE",
"zX c #C5D4DF",
"xX c #C3D6E4",
"cX c #CBDDE6",
"vX c #C6DAE8",
"bX c #D0DCE8",
"nX c #C3DCF2",
"mX c #C6DEF6",
"MX c #D3E3EB",
"NX c #DAE6EE",
"BX c #CBE3FC",
"VX c #CAE1F4",
"CX c #D3E4F2",
"ZX c #DCE9F0",
"AX c #D3E9FE",
"SX c #DCEAF8",
"DX c #CEE1EF",
"FX c #E3EDF3",
"GX c #E7F0F5",
"HX c #EBF2F6",
"JX c #EEF5FB",
"KX c #E4F2FF",
"LX c #F1F6FA",
"PX c #F5F9FC",
"IX c #FAFCFD",
"UX c None",
/* pixels */
"UXUXUXUXUXUXUXUXUXUXUXUXUXUXUXUXUXUXUXUXUXUXUXUXUXUXUXUXUXUXUXUXUXUXUXUXUXUXUXUXUXUXUXUXUXUXUXUX",
"UXUXUXUXUXUXUXUXUXUXUXUXUXUXUXUXUXUXUXUXUXUXUXUXUXUXUXUXUXUXUXUXUXUXUXUXUXUXUXUXUXUXUXUXUXUXUXUX",
"UXUXUXUXUXUXUXUXUXUXUXUXUXUXUXUXUXUXUX| ~ ! R R ~ _ UXUXUXUXUXUXUXUXUXUXUXUXUXUXUXUXUXUXUXUXUXUX",
"UXUXUXUXUXUXUXUXUXUXUXUXUXUXUXUX` R Y Y Y U U U U U U T W UXUXUXUXUXUXUXUXUXUXUXUXUXUXUXUXUXUXUX",
"UXUXUXUXUXUXUXUXUXUXUXUXUXUX_ T C C U ~ :.C C U C C Z Z C C Q UXUXUXUXUXUXUXUXUXUXUXUXUXUXUXUXUX",
"UXUXUXUXUXUXUXUXUXUXUXUXUXQ C R T U R ~ k.R T :.C Y C T C n C T D UXUXUXI.g.UXUXUXUXUXUXUXUXUXUX",
"UXUXUXUXUXUXUXUXUXUXUXUXQ R R >.*.` W W a.2.C k.<.*.-.k.2.( 1.%.} #.&X].z.~ ( UXUXUXUXUXUXUXUXUX",
"UXUXUXUXUXUXUXUXUXUXUX| <.>.,.` ,.a.>.a.<.l.W ,.z.a.l.z.l.m.J.&X0X0XiX].a._ ` D [ ,.s.1.g.P.R.UX",
"UXUXUXUXUXUXUXUXUXUXK.f.B.P.P.| ,.| 3.U.z.,.1.| I.g.I.P.l.N.t.8XdX0XqXU.p.f.E.| m D Q <.z.E.I.UX",
"UXUXUXUXUXUXUXUXUX'.!.!.W.!.Q.B.d.d.| Y.W.N.d.1.P.B.K.Q.f.N.r.dXzXdXwX/.M.`.R.R.f.g.K.P.W.U.} UX",
"UXUXUXUXUXUXUXUX{.[.XX|.|.}.}.}.).F.F.J.}.~.Y.N.N.B.L.'.d.M.=XcXcXaXXX|.:X|.!.!.!.!.!.Q.W.#.UXUX",
"UXUXUXUXUXUXUXUXXX|.6X7X,X>Xe.X.b b K $.:X4X`.T.m.Z.T.{.V.D.xXcXMXaX|.aXcXqX[.[.'.'.'.'.Z.UXUXUX",
"UXUXUXUXUXUXUX.XqX7X7X=X@.u ; ; : : l l ^ qXuX.X(.n.(. X_.0XMXcXMXsXaXcXcXaX.X{.{.{.{.{.9.UXUXUX",
"UXUXUXUXUXUXUXqX7X7X=Xw.. . ; : : l l l x G.bXtX}.M.(.wXaXMXMXMXMXvXhXsXsXfX.X.X.X.X.X X+.UXUXUX",
"UXUXUXUXUXUXUXqX7X*X@XX.. ; ; : : : l l z { sXyX4XH.3XhXMXMX*Xq.xXnXeXrXrXeXeXwXwX4XwX}.UXUXUXUX",
"UXUXUXUXUXUXqX7X*X%X#X9 . ; , , q : l l z K 1XyXjXkXnXNXFX9Xu < t.DXgXrXtXuXH.5XrXeXrX_.UXUXUXUX",
"UXUXUXUXUXUX6X=X#XaX>X8 # . , , q q 0 0 z v (.jXNXZXZXFXzXX., , d xXCXjXyXkX&XH.hXyXyXH.UXUXUXUX",
"UXUXUXUXUXUX6X#X:XlX&X3 # $ , < q q 0 0 0 c F.VXZXFXFXGX@X1 < < 6 *XFXZXVXCXcXaXnXjX2XUXUXUXUXUX",
"UXUXUXUXUXUX&XJ.fXjXe.3 # > > < < q q r r c S.AXFXFXFXGX0.< < < > H 0XZXCXVXCXCXlXqXUXUXUXUXUXUX",
"UXUXUXUXUXUXe.1XyXyXr.3 $ $ > > < 4 w w r r A.AXFXGXHXFX@.> < 4 * * h #XsXVXNXsX:Xq.UXUXUXUXUXUX",
"UXUXUXUXUXUX9.4XtXtX9.3 @ * > 4 4 e w w w w r.AXHXHXHXFX@.> 4 2 2 * * i j @.*Xt.o.UXUXUXUXUXUXUX",
"UXUXUXUXUXH f H (.eX|.P * * * 2 4 4 5 e e M H.AXHXHXLXGX0.6 5 2 * * * @ o o O O O UXUXUXUXUXUXUX",
"UXUXUXUXUXf o o i M.).].{ a 2 5 d 5 5 5 e L 3XBXHXHXLXLX=XL 5 * * * * @ o o o o o f UXUXUXUXUXUX",
"UXUXUXUXUX- o o @ 5 G -XaX+.= 5 L J a 5 a n.4XBXLXLXPXIX8X8.a 2 * * * * * @ @ o X 9 UXUXUXUXUXUX",
"UXUXUXUXUX- o o @ + H DXPXvXI 2 V C.m.B B  . XjXLXPXPXIX0X%.5 4 2 2 * * @ @ @ + X - UXUXUXUXUXUX",
"UXUXUXUXUX= X + @ $ w.PXKXNX=Xy 4 J N.} V Z.{.5XJXIXIXIXNXS.J 4 2 2 > * * * @ @ X % UXUXUXUXUXUX",
"UXUXUXUXUX% X + @ 3 *XIX9X@XDX+.2 t L.L.L.'.[.].kXIXIXIXLX-XN.a 2 2 > * $ $ @ + + = UXUXUXUXUXUX",
"UXUXUXUXUX= X + + 7 #X<Xj 0.SX*X6 B Y.!.!.!.!.!.].BXIXIXIXVXM.t > > > > $ + + + X & UXUXUXUXUXUX",
"UXUXUXUXUX% + + + 1 g j w.DXKXxXG p ^ R.Q.Q.g.g.R.tXIXIXIXJX9.< > > > $ $ $ + + X % UXUXUXUXUXUX",
"UXUXUXUXUX= + + + + o.9XKXSX,XVX0.> m g.R.z.B p a..XLXIXIXPX#X> > > * # # + + + + 7 UXUXUXUXUXUX",
"UXUXUXUXUX7 X + + + X.vXxXq.G 8X,Xd > D ,._ t < _ R.hXPXLXIX9X- > $ $ $ + # + + + i UXUXUXUXUXUX",
"UXUXUXUXUXs +   + + 8 o.j H &XmXBX0.> > > < 4 2 Q x.I.kXIXLXbXj # # # # + + + + X d UXUXUXUXUXUX",
"UXUXUXUXUXUX&     + + 9 q.xXAXsXiXqXh , > # < > T c.k.L.HXLXLXw.& # # + + +     & UXUXUXUXUXUXUX",
"UXUXUXUXUXUX7       + g sXpX@XO.0.kX>Xy # > < # 1 m e s *XHXLX$X& + + + # r t # s UXUXUXUXUXUXUX",
"UXUXUXUXUXUXd X       & @.k 8 t.kXlXhXD.8 # # # # # $ # g 0.@Xk   + +   < 7.6.v } UXUXUXUXUXUXUX",
"UXUXUXUXUXUXUX7     + + 1 f &XlXjXD.O.2XA.7 # # # # # # # # & + . + + + C 5.;.N L.UXUXUXUXUXUXUX",
"UXUXUXUXUXUXUXd +   # $ # $.jX>XO.1 G 2XgXA.s * < > > 2 > > > $ $ $ > 4 ;.5.! 1.[.UXUXUXUXUXUXUX",
"UXUXUXUXUXUXUXUX8   $ 5 4 M $.9 @ G -XgX2X1XF.F w e e 5 e e w e w w n &.5.4.| ~.~.UXUXUXUXUXUXUX",
"UXUXUXUXUXUXUXUXUX3 X w n n m i O.qXgX-X} 1XyX_.} D n m n n A / ) =.i.j.4.7.L.!.L.UXUXUXUXUXUXUX",
"UXUXUXUXUXUXUXUXUXUX& * A E A ( H.2X9.d %.rX).|.wXZ.../ A A / i.v.v.b.5.6.K.!.!.n.UXUXUXUXUXUXUX",
"UXUXUXUXUXUXUXUXUXUXF % e / ) ) -.[ 3 P 5X5X} F.eX}.XXL.p.' y.oXOXoXj.c.U.!.W.U.P UXUXUXUXUXUXUX",
"UXUXUXUXUXUXUXUXUXUXUXUX8 t ) u.u.=.' ).rX9.e  .4XZ.n. X{.`./.^.+XR.W.U.W.Q.W.n.UXUXUXUXUXUXUXUX",
"UXUXUXUXUXUXUXUXUXUXUXUXUXs e / u.h.i.j.C.V a %.4XV.S C. X[.3.B.'.[.W.:.a.E.V.UXUXUXUXUXUXUXUXUX",
"UXUXUXUXUXUXUXUXUXUXUXUXUXUXUXy M / y.b.b.y.] Z..X .n  .{.[.s.R f.!.W.:.&.*.UXUXUXUXUXUXUXUXUXUX",
"UXUXUXUXUXUXUXUXUXUXUXUXUXUXUXUXUXN M M A / ] ] [ N M [ `.'.s.C ~ K.V.( UXUXUXUXUXUXUXUXUXUXUXUX",
"UXUXUXUXUXUXUXUXUXUXUXUXUXUXUXUXUXUXUXUXJ F N V N F UXUXUXUXUXUXUXUXUXUXUXUXUXUXUXUXUXUXUXUXUXUX",
"UXUXUXUXUXUXUXUXUXUXUXUXUXUXUXUXUXUXUXUXUXUXUXUXUXUXUXUXUXUXUXUXUXUXUXUXUXUXUXUXUXUXUXUXUXUXUXUX",
"UXUXUXUXUXUXUXUXUXUXUXUXUXUXUXUXUXUXUXUXUXUXUXUXUXUXUXUXUXUXUXUXUXUXUXUXUXUXUXUXUXUXUXUXUXUXUXUX"
};
