#define sather_width 48
#define sather_height 48
static char sather_bits[] = {
   0x00, 0x00, 0x00, 0x00, 0x00, 0x00, 0x00, 0x00, 0x00, 0x00, 0x00, 0x00,
   0x00, 0x00, 0x00, 0x00, 0x00, 0x00, 0x00, 0x00, 0x00, 0x00, 0x00, 0x00,
   0x00, 0x00, 0x00, 0x00, 0x00, 0x00, 0x00, 0x00, 0x00, 0x00, 0x00, 0x00,
   0x00, 0x00, 0x00, 0x00, 0x00, 0x00, 0x00, 0x00, 0x00, 0x00, 0x00, 0x00,
   0x00, 0x00, 0x00, 0x00, 0x08, 0x00, 0x00, 0x00, 0x00, 0x00, 0x08, 0x00,
   0x00, 0x00, 0x00, 0x00, 0x08, 0x00, 0x00, 0x00, 0x00, 0x00, 0x1c, 0x00,
   0x00, 0x00, 0x00, 0x00, 0x1c, 0x00, 0x00, 0x00, 0x00, 0x00, 0x1c, 0x00,
   0x00, 0x00, 0x00, 0x00, 0x3e, 0x00, 0x30, 0x00, 0x00, 0x00, 0x3e, 0x00,
   0x30, 0x00, 0x00, 0x00, 0x3e, 0x00, 0x30, 0x00, 0x00, 0x00, 0x3e, 0x00,
   0x30, 0x00, 0x00, 0x00, 0x7f, 0x00, 0x78, 0x00, 0x00, 0x00, 0x7f, 0x00,
   0xfc, 0x00, 0x00, 0x00, 0x7f, 0x00, 0xb4, 0x00, 0x00, 0x80, 0xff, 0x00,
   0xb6, 0x01, 0x00, 0x80, 0xff, 0x00, 0x32, 0x01, 0x00, 0x80, 0xff, 0x00,
   0x32, 0x03, 0x00, 0x80, 0xeb, 0x00, 0x32, 0x07, 0x00, 0x80, 0xc9, 0x00,
   0x32, 0x1d, 0x00, 0x80, 0xa8, 0x00, 0x32, 0x39, 0x00, 0x80, 0x98, 0x00,
   0x32, 0xe9, 0x01, 0x80, 0x80, 0x00, 0x32, 0x49, 0x03, 0x80, 0xc1, 0x00,
   0x32, 0x49, 0x0e, 0x80, 0xe3, 0x00, 0x32, 0x49, 0xfa, 0x81, 0xff, 0x00,
   0x32, 0x49, 0x92, 0xbf, 0xff, 0x00, 0x32, 0x49, 0x92, 0x84, 0xff, 0x00,
   0xfe, 0xff, 0xff, 0xbf, 0xff, 0x00, 0xfe, 0xff, 0xff, 0xbf, 0xff, 0x00,
   0x30, 0x00, 0x00, 0x80, 0xff, 0x00, 0x30, 0x00, 0x00, 0x80, 0xff, 0x00,
   0x30, 0x00, 0x00, 0x80, 0xff, 0x00, 0x30, 0x00, 0x00, 0x80, 0xff, 0x00,
   0x30, 0x00, 0x00, 0x80, 0xff, 0x00, 0x30, 0x00, 0x00, 0x80, 0xff, 0x00,
   0x30, 0x00, 0x00, 0x80, 0xff, 0x00, 0x30, 0x00, 0x00, 0x80, 0xff, 0x00,
   0x30, 0x00, 0x00, 0x00, 0x00, 0x00, 0x00, 0x00, 0x00, 0x00, 0x00, 0x00,
   0x00, 0x00, 0x00, 0x00, 0x00, 0x00, 0x00, 0x00, 0x00, 0x00, 0x00, 0x00};
