/* XPM */
static char * perc2_xpm[] = {
"10 10 4 1",
" 	c None",
".	c #949594",
"+	c #000000",
"@	c #FFFFFF",
"          ",
"    .++   ",
"     .++  ",
"      .++ ",
"@@@@@@@@@+",
"++++++++++",
"      @++ ",
"     @++  ",
"    @++   ",
"          "};
