/* XPM */
static char * ascii_xpm[] = {
"32 35 263 2",
"  	c None",
". 	c #000000",
"+ 	c #8C8C8C",
"@ 	c #AAAAAA",
"# 	c #A7A7A6",
"$ 	c #999999",
"% 	c #121212",
"& 	c #464646",
"* 	c #828282",
"= 	c #B2B2B2",
"- 	c #B5B5B5",
"; 	c #B1B1B0",
"> 	c #AFAFAE",
", 	c #AEAEAD",
"' 	c #4D4D4C",
") 	c #161616",
"! 	c #767676",
"~ 	c #9F9F9F",
"{ 	c #B9B9B8",
"] 	c #B8B8B7",
"^ 	c #B6B6B5",
"/ 	c #B4B4B4",
"( 	c #969696",
"_ 	c #797979",
": 	c #AFAFAF",
"< 	c #ADADAC",
"[ 	c #989897",
"} 	c #181818",
"| 	c #9D9D9D",
"1 	c #AAAAA9",
"2 	c #ACACAB",
"3 	c #B0B0AF",
"4 	c #B8B8B8",
"5 	c #B7B7B7",
"6 	c #747474",
"7 	c #777776",
"8 	c #4A4A4A",
"9 	c #8C8C8B",
"0 	c #ADADAD",
"a 	c #252525",
"b 	c #D3D3D3",
"c 	c #7A7A7A",
"d 	c #878787",
"e 	c #A8A8A7",
"f 	c #B4B4B3",
"g 	c #A2A2A2",
"h 	c #505050",
"i 	c #888888",
"j 	c #9C9C9C",
"k 	c #878786",
"l 	c #D5D5D5",
"m 	c #E1E1E0",
"n 	c #7F7F7F",
"o 	c #6B6B6B",
"p 	c #808080",
"q 	c #ABABAB",
"r 	c #B0B0B0",
"s 	c #B2B2B1",
"t 	c #B3B3B2",
"u 	c #8F8F8E",
"v 	c #AEAEAE",
"w 	c #131313",
"x 	c #A0A0A0",
"y 	c #DDDDDD",
"z 	c #DBDBDB",
"A 	c #CBCBCB",
"B 	c #5A5A59",
"C 	c #787878",
"D 	c #999998",
"E 	c #A4A4A4",
"F 	c #ACACAC",
"G 	c #868686",
"H 	c #191919",
"I 	c #D4D4D4",
"J 	c #DFDFDF",
"K 	c #525252",
"L 	c #727272",
"M 	c #909090",
"N 	c #9D9D9C",
"O 	c #A6A6A5",
"P 	c #E4E4E4",
"Q 	c #626261",
"R 	c #4D4D4D",
"S 	c #5D5D5D",
"T 	c #6F6F6F",
"U 	c #8D8D8D",
"V 	c #989898",
"W 	c #9E9E9E",
"X 	c #A5A5A5",
"Y 	c #3A3A3A",
"Z 	c #5A5A5A",
"` 	c #646464",
" .	c #5C5C5C",
"..	c #535353",
"+.	c #616161",
"@.	c #707070",
"#.	c #8F8F8F",
"$.	c #858585",
"%.	c #484848",
"&.	c #ABABAA",
"*.	c #272727",
"=.	c #595959",
"-.	c #B1B1B1",
";.	c #141414",
">.	c #424242",
",.	c #777777",
"'.	c #717171",
").	c #676767",
"!.	c #7D7D7C",
"~.	c #7B7B7A",
"{.	c #7F7F7E",
"].	c #6C6C6B",
"^.	c #787877",
"/.	c #B3B3B3",
"(.	c #1A1A1A",
"_.	c #8E8E8E",
":.	c #828281",
"<.	c #7D7D7D",
"[.	c #686868",
"}.	c #838383",
"|.	c #757575",
"1.	c #888887",
"2.	c #939392",
"3.	c #B7B7B6",
"4.	c #030303",
"5.	c #A8A8A8",
"6.	c #737373",
"7.	c #4E4E4E",
"8.	c #4B4B4B",
"9.	c #898989",
"0.	c #BABAB9",
"a.	c #6C6C6C",
"b.	c #B9B9B9",
"c.	c #BCBCBC",
"d.	c #767675",
"e.	c #4C4C4C",
"f.	c #6A6A6A",
"g.	c #BFBFBF",
"h.	c #BABABA",
"i.	c #959594",
"j.	c #BDBDBC",
"k.	c #BBBBBB",
"l.	c #292929",
"m.	c #C2C2C2",
"n.	c #BFBFBE",
"o.	c #BDBDBD",
"p.	c #C4C4C4",
"q.	c #C6C6C5",
"r.	c #C8C8C7",
"s.	c #C3C3C3",
"t.	c #C0C0BF",
"u.	c #CDCDCD",
"v.	c #C8C8C8",
"w.	c #636363",
"x.	c #656565",
"y.	c #C6C6C6",
"z.	c #C9C9C9",
"A.	c #CACACA",
"B.	c #C0C0C0",
"C.	c #818181",
"D.	c #C2C2C1",
"E.	c #CACAC9",
"F.	c #949494",
"G.	c #C1C1C0",
"H.	c #D8D8D8",
"I.	c #CECECE",
"J.	c #D0D0D0",
"K.	c #D1D1D0",
"L.	c #CFCFCF",
"M.	c #7E7E7E",
"N.	c #939393",
"O.	c #D1D1D1",
"P.	c #515150",
"Q.	c #C5C5C5",
"R.	c #C3C3C2",
"S.	c #151514",
"T.	c #E3E3E3",
"U.	c #E0E0DF",
"V.	c #D9D9D9",
"W.	c #D6D6D5",
"X.	c #D8D8D7",
"Y.	c #D7D7D7",
"Z.	c #CDCDCC",
"`.	c #CCCCCB",
" +	c #C7C7C7",
".+	c #E8E8E8",
"++	c #E6E6E6",
"@+	c #DCDCDC",
"#+	c #D2D2D2",
"$+	c #666666",
"%+	c #656564",
"&+	c #C5C5C4",
"*+	c #D6D6D6",
"=+	c #848484",
"-+	c #CBCBCA",
";+	c #C9C9C8",
">+	c #2A2A2A",
",+	c #F0F0F0",
"'+	c #ECECEC",
")+	c #BEBEBE",
"!+	c #E2E2E1",
"~+	c #E0E0E0",
"{+	c #DEDEDE",
"]+	c #DBDBDA",
"^+	c #D9D9D8",
"/+	c #6E6E6E",
"(+	c #C7C7C6",
"_+	c #7B7B7B",
":+	c #F4F4F4",
"<+	c #F1F1F1",
"[+	c #EEEEEE",
"}+	c #EBEBEB",
"|+	c #E9E9E9",
"1+	c #E7E7E7",
"2+	c #E2E2E2",
"3+	c #E1E1E1",
"4+	c #D4D4D3",
"5+	c #A0A09F",
"6+	c #1C1C1C",
"7+	c #F9F9F9",
"8+	c #F6F6F6",
"9+	c #F3F3F3",
"0+	c #F1F1F0",
"a+	c #CCCCCC",
"b+	c #DEDEDD",
"c+	c #A1A1A1",
"d+	c #DADADA",
"e+	c #D2D2D1",
"f+	c #D0D0CF",
"g+	c #FAFAFA",
"h+	c #F7F7F7",
"i+	c #B6B6B6",
"j+	c #EFEFEE",
"k+	c #EDEDED",
"l+	c #EAEAEA",
"m+	c #9B9B9B",
"n+	c #C1C1C1",
"o+	c #DFDFDE",
"p+	c #929292",
"q+	c #FCFCFC",
"r+	c #FBFBFB",
"s+	c #F5F5F5",
"t+	c #F2F2F2",
"u+	c #E5E5E5",
"v+	c #DDDDDC",
"w+	c #171717",
"x+	c #383838",
"y+	c #FEFEFE",
"z+	c #FDFDFD",
"A+	c #F8F8F8",
"B+	c #919191",
"C+	c #ECECEB",
"D+	c #FFFFFF",
"E+	c #696969",
"F+	c #545454",
"G+	c #E8E8E7",
"H+	c #E6E6E5",
"I+	c #A3A3A3",
"J+	c #F7F7F6",
"K+	c #F3F3F2",
"L+	c #343434",
"M+	c #A7A7A7",
"N+	c #373737",
"                                    . .                         ",
"                                . . + + .                       ",
"                            . . + @ # $ %                       ",
"                  . . . & * = - = ; > , '                       ",
"          . . ) ) ! ~ { ] ] ^ / ( _ : < [ .                     ",
"        } | 1 2 3 4 4 4 5 6 3 # 7 8 9 0 0 a                     ",
"      . b c d ~ e ; f - / g h i j 3 , , < k                     ",
"    . l m n o p ~ q r s t ; u : r v 0 0 < < w                   ",
"  . x y z A B C D E F : : : > > v 0 0 0 F 0 G                   ",
"  H I J y b K L M N O F 0 0 0 0 0 < < 2 < < 0 w                 ",
". q P # Q R S T U V W X # E , v 0 F q | Y Z > k                 ",
". `  ...K +.@.Z #.$ | $.%.U > : > &.o *.=.: r -.;.              ",
". >.n ,.,.C C '.).!.~.{.r -.= r ( ].^.# 3 -.= /.i .             ",
"  (._.[ :.#.<.[.>.}.: -.; |.!.n d -.= = 2 1.2.^ 3.*.            ",
"  4.-.5.g 6.7.S 5.: = v 8 8.9.3 0.0.X a.T @ b.{ { u .           ",
"  . c./.@.'.F r = ^ d.e.f.g.( h.g.b.i.5.j.c.c.c.k.k.l.          ",
"  . k.m.n.k.b.9.).= o.p.q.r.f.@ _.( s.m.m.{ t.t.g.o.5..         ",
"  . v u.v.h.w.x.@ y.z.A.B.#.C.O D.E.v.g F.6 Z r D.G.t.!..       ",
"  . h H.I o V I.I.J.K.L.M.N.O.O.J.J.G P.a.i g.y.Q.p.R.D.S.      ",
"    . T.U.z H.l ~ f.q V.W.X.Y.s.O./.0 A.I.Z.`.E.v. +y.p.W .     ",
"    . y .+++b.x.9.h.y y @+#+$+%+E &+*+I #+O.=+: `.-+;+y.p.>+    ",
"    . z.,+'+)+J P T.!+~+y f.d  +{+y ]+^+y.g /+O.L.u.A ;+(+, .   ",
"    . _+:+<+[+}+|+1+@+J.J.b.T.2+3+~+{+V.Y.X.W.4+O.L.u.A z. +5+. ",
"      6+7+8+9+0+a+U M a+.+1+1+++b+| N.c+@+d+H.*+4+e+f+u.A p.M . ",
"      . z g+h+p.i+++j+k+'+}+l+.+m+n+T.m o+@+d+H.*+I #+f+p+) .   ",
"      . h.q+r+7+h+s+9+t+y.R k.}+|+1+u+T.3+J v+]+H.*+0 w+.       ",
"        x+y+z+z+g+A+1+5.! B+d+[+C+|+1+u+T.3+J y 3 w+. . . .     ",
"        . D+D+y+r+E+F+B+J :+t+,+[+'+l+G+H+l I+. . . . . . . .   ",
"        . )+D+D+,+o A r+7+J+:+t+,+[+'+y.( . . . . . . .         ",
"        . <.D+D+D+D+D+z+r+7+h+s+K+x L+. . . . . .               ",
"          . D+D+D+D+D+D+z+r+L.#.. . . . . .                     ",
"          . )+D+D+D+D+2+M+N+. . . . .                           ",
"            x+D+2+k.<.. . . . .                                 ",
"            . . . . . . .                                       ",
"              . .                                               "};
