/* XPM */
static char * tex_xpm[] = {
"32 35 276 2",
"  	c None",
". 	c #000000",
"+ 	c #8C8C8C",
"@ 	c #AAAAAA",
"# 	c #A7A7A6",
"$ 	c #999999",
"% 	c #121212",
"& 	c #464646",
"* 	c #828282",
"= 	c #B2B2B2",
"- 	c #B5B5B5",
"; 	c #B1B1B0",
"> 	c #AFAFAE",
", 	c #AEAEAD",
"' 	c #4D4D4C",
") 	c #161616",
"! 	c #767676",
"~ 	c #9F9F9F",
"{ 	c #B9B9B8",
"] 	c #B8B8B7",
"^ 	c #B6B6B5",
"/ 	c #B4B4B4",
"( 	c #B0B0B0",
"_ 	c #AFAFAF",
": 	c #ADADAC",
"< 	c #989897",
"[ 	c #181818",
"} 	c #9D9D9D",
"| 	c #AAAAA9",
"1 	c #ACACAB",
"2 	c #B0B0AF",
"3 	c #B8B8B8",
"4 	c #B7B7B7",
"5 	c #B6B6B6",
"6 	c #B5B5B4",
"7 	c #B4B4B3",
"8 	c #B2B2B1",
"9 	c #ADADAD",
"0 	c #252525",
"a 	c #D3D3D3",
"b 	c #7A7A7A",
"c 	c #878787",
"d 	c #A8A8A7",
"e 	c #B3B3B3",
"f 	c #B1B1B1",
"g 	c #878786",
"h 	c #D5D5D5",
"i 	c #E1E1E0",
"j 	c #7F7F7F",
"k 	c #6B6B6B",
"l 	c #808080",
"m 	c #ABABAB",
"n 	c #B3B3B2",
"o 	c #AEAEAE",
"p 	c #131313",
"q 	c #A0A0A0",
"r 	c #DDDDDD",
"s 	c #DBDBDB",
"t 	c #CBCBCB",
"u 	c #5A5A59",
"v 	c #787878",
"w 	c #999998",
"x 	c #A4A4A4",
"y 	c #ACACAC",
"z 	c #868686",
"A 	c #191919",
"B 	c #D4D4D4",
"C 	c #DFDFDF",
"D 	c #525252",
"E 	c #727272",
"F 	c #909090",
"G 	c #9D9D9C",
"H 	c #A6A6A5",
"I 	c #848484",
"J 	c #676767",
"K 	c #E4E4E4",
"L 	c #626261",
"M 	c #4D4D4D",
"N 	c #5D5D5D",
"O 	c #6F6F6F",
"P 	c #8D8D8D",
"Q 	c #989898",
"R 	c #9E9E9E",
"S 	c #A5A5A5",
"T 	c #4B4B4B",
"U 	c #484848",
"V 	c #646464",
"W 	c #5C5C5C",
"X 	c #535353",
"Y 	c #616161",
"Z 	c #707070",
"` 	c #747474",
" .	c #8F8F8F",
"..	c #A7A7A7",
"+.	c #4C4C4B",
"@.	c #3D3D3D",
"#.	c #141414",
"$.	c #424242",
"%.	c #777777",
"&.	c #8B8B8B",
"*.	c #929292",
"=.	c #9E9E9D",
"-.	c #A4A4A3",
";.	c #383838",
">.	c #939392",
",.	c #A1A1A1",
"'.	c #262626",
").	c #888888",
"!.	c #1A1A1A",
"~.	c #8E8E8E",
"{.	c #828281",
"].	c #949494",
"^.	c #9C9C9C",
"/.	c #7B7B7A",
"(.	c #747473",
"_.	c #232323",
":.	c #212121",
"<.	c #373737",
"[.	c #313131",
"}.	c #B7B7B6",
"|.	c #272727",
"1.	c #030303",
"2.	c #A8A8A8",
"3.	c #A2A2A2",
"4.	c #A2A2A1",
"5.	c #BABABA",
"6.	c #3F3F3F",
"7.	c #979796",
"8.	c #6D6D6C",
"9.	c #2B2B2B",
"0.	c #222222",
"a.	c #282828",
"b.	c #B9B9B9",
"c.	c #8F8F8E",
"d.	c #BCBCBC",
"e.	c #7E7E7D",
"f.	c #A9A9A9",
"g.	c #BFBFBF",
"h.	c #C0C0C0",
"i.	c #888887",
"j.	c #020202",
"k.	c #3B3B3B",
"l.	c #595959",
"m.	c #BBBBBB",
"n.	c #292929",
"o.	c #C2C2C2",
"p.	c #BFBFBE",
"q.	c #323232",
"r.	c #0C0C0C",
"s.	c #C6C6C5",
"t.	c #C8C8C7",
"u.	c #4A4A4A",
"v.	c #C4C4C4",
"w.	c #C3C3C3",
"x.	c #585857",
"y.	c #3E3E3E",
"z.	c #474747",
"A.	c #CDCDCD",
"B.	c #C6C6C6",
"C.	c #060606",
"D.	c #5B5B5B",
"E.	c #818181",
"F.	c #CACACA",
"G.	c #CCCCCC",
"H.	c #6C6C6B",
"I.	c #2D2D2D",
"J.	c #8C8C8B",
"K.	c #C8C8C8",
"L.	c #C7C7C7",
"M.	c #353535",
"N.	c #C5C5C5",
"O.	c #626262",
"P.	c #C0C0BF",
"Q.	c #7D7D7C",
"R.	c #505050",
"S.	c #D8D8D8",
"T.	c #414141",
"U.	c #494949",
"V.	c #7E7E7E",
"W.	c #4F4F4F",
"X.	c #474746",
"Y.	c #D2D2D2",
"Z.	c #2F2F2F",
"`.	c #CDCDCC",
" +	c #C9C9C9",
".+	c #C3C3C2",
"++	c #C2C2C1",
"@+	c #151514",
"#+	c #393938",
"$+	c #1F1F1F",
"%+	c #D9D9D8",
"&+	c #D8D8D7",
"*+	c #444444",
"=+	c #BDBDBD",
"-+	c #606060",
";+	c #D0D0D0",
">+	c #565656",
",+	c #CCCCCB",
"'+	c #C7C7C6",
")+	c #5A5A5A",
"!+	c #C5C5C4",
"~+	c #1B1B1B",
"{+	c #DCDCDC",
"]+	c #2A2A2A",
"^+	c #2E2E2E",
"/+	c #797979",
"(+	c #CFCFCF",
"_+	c #CECECE",
":+	c #CBCBCA",
"<+	c #C9C9C8",
"[+	c #F0F0F0",
"}+	c #ECECEC",
"|+	c #E9E9E9",
"1+	c #E6E6E6",
"2+	c #E3E3E3",
"3+	c #0F0F0F",
"4+	c #7D7D7D",
"5+	c #E0E0E0",
"6+	c #DBDBDA",
"7+	c #D7D7D6",
"8+	c #D1D1D1",
"9+	c #7B7B7B",
"0+	c #F4F4F4",
"a+	c #F1F1F1",
"b+	c #EEEEEE",
"c+	c #EBEBEB",
"d+	c #E7E7E7",
"e+	c #202020",
"f+	c #696969",
"g+	c #8A8A8A",
"h+	c #E1E1E1",
"i+	c #DEDEDE",
"j+	c #DADADA",
"k+	c #D6D6D5",
"l+	c #D4D4D3",
"m+	c #A0A09F",
"n+	c #1C1C1C",
"o+	c #F9F9F9",
"p+	c #F6F6F6",
"q+	c #F3F3F3",
"r+	c #F1F1F0",
"s+	c #EDEDED",
"t+	c #EAEAEA",
"u+	c #858585",
"v+	c #E5E5E4",
"w+	c #E2E2E2",
"x+	c #D6D6D6",
"y+	c #D2D2D1",
"z+	c #D0D0CF",
"A+	c #FAFAFA",
"B+	c #F7F7F7",
"C+	c #F5F5F5",
"D+	c #EFEFEE",
"E+	c #E8E8E8",
"F+	c #E5E5E5",
"G+	c #DFDFDE",
"H+	c #FCFCFC",
"I+	c #FBFBFB",
"J+	c #434343",
"K+	c #DDDDDC",
"L+	c #171717",
"M+	c #FEFEFE",
"N+	c #FDFDFD",
"O+	c #F8F8F8",
"P+	c #F2F2F2",
"Q+	c #ECECEB",
"R+	c #FFFFFF",
"S+	c #E2E2E1",
"T+	c #E8E8E7",
"U+	c #E6E6E5",
"V+	c #A3A3A3",
"W+	c #BEBEBE",
"X+	c #F7F7F6",
"Y+	c #969696",
"Z+	c #F3F3F2",
"`+	c #343434",
"                                    . .                         ",
"                                . . + + .                       ",
"                            . . + @ # $ %                       ",
"                  . . . & * = - = ; > , '                       ",
"          . . ) ) ! ~ { ] ] ^ / = ( _ : < .                     ",
"        [ } | 1 2 3 3 3 4 5 6 7 8 ; > 9 9 0                     ",
"      . a b c ~ d ; 7 - / / e = f 2 , , : g                     ",
"    . h i j k l ~ m ( 8 n ; 8 _ ( o 9 9 : : p                   ",
"  . q r s t u v w x y _ _ _ > > o 9 9 9 y 9 z                   ",
"  A B C r a D E F G H y 9 9 9 9 9 : : 1 I J 9 p                 ",
". m K # L M N O P Q R S 1 y , o 9 y m T U H > g                 ",
". V W X D Y Z `  .$ } ..y y > _ c +.y ~ @._ ( f #.              ",
". $.j %.%.v v &.*.=.-.: ( f = R ;.>., ,.'.f = e )..             ",
"  !.~.< {. .j ].^..._ f /.^ (._.:.<.} _ [.6 6 ^ }.|.            ",
"  1.f 2.3.~ 4.H @ _ = Y X 5.6.7.8.9.% 0.a.3 b.{ { c..           ",
"  . d.5 / f f ( = ^ e.[ f.g.h.h.g.e i.[.j.k.l.o m.m.n.          ",
"  . m.o.p.m.b.3 3.q.r.* s.t., [.u.v.w.b.:.x.y.'.y.z.2..         ",
"  . o A.B.= E [ C.D.E.F.G.G.[.H.I.J.K.L.M.N.} O.k.; P.Q..       ",
"  . R.S.D.T.U.V.m.W.X.Y.Y.Y.Z.o.k.5 t.`.y. +K.& N.v..+++@+      ",
"    . L.#+5 v.S.S.u.$+V.%+&+k.*+2.=+-+;+l.>+,+'+K.L.B.v.R .     ",
"    . r )+X Y !+C h ~+0.{+{+- ]+9.^+/+B E t (+_+,+:+<+B.v.]+    ",
"    .  +[+}+|+1+K 2+U 3+4+5+C h v. +6+%+7+B Y.8+(+A.t <+'+, .   ",
"    . 9+0+a+b+c+|+d+{+e+Z.b.f+g+h+5+i+{+j+&+k+l+8+(+A.t  +L.m+. ",
"      n+o+p+q+r+s+}+t+f+k.T u+S.v+w+5+i+{+j+S.x+l+y+z+A.t v.F . ",
"      . s A+B+C+q+a+D+3 [.S d+E+d+F+2+i G+{+j+S.x+B Y.z+*.) .   ",
"      . 5.H+I+o+B+C+q+J+=+D+s+c+|+d+F+2+h+C K+6+S.x+9 L+.       ",
"        ;.M+N+N+A+O+f O q+P+[+b+Q+|+d+F+2+h+C r 2 L+. . . .     ",
"        . R+R+M+M+H+S+O+p+0+P+[+b+}+t+T+U+h V+. . . . . . . .   ",
"        . W+R+R+R+R+N+I+o+X+0+P+[+b+}+B.Y+. . . . . . .         ",
"        . 4+R+R+R+R+R+N+I+o+B+C+Z+q `+. . . . . .               ",
"          . R+R+R+R+R+R+N+I+(+ .. . . . . .                     ",
"          . W+R+R+R+R+w+..<.. . . . .                           ",
"            ;.R+w+m.4+. . . . .                                 ",
"            . . . . . . .                                       ",
"              . .                                               "};
