/* XPM */
static char * tool_icon_markers_xpm[] = {
"24 26 91 1",
" 	c None",
".	c #1D1D1D",
"+	c #E7E7E7",
"@	c #D8D8D8",
"#	c #E1E1E1",
"$	c #CACACA",
"%	c #D9D9D9",
"&	c #D1D1D1",
"*	c #BDBDBD",
"=	c #C1C1C1",
"-	c #1B1B1B",
";	c #A8A8A8",
">	c #C9C9C9",
",	c #C3C3C3",
"'	c #B9B9B9",
")	c #B1B1B1",
"!	c #1A1A1A",
"~	c #9F9F9F",
"{	c #AAAAAA",
"]	c #BBBBBB",
"^	c #B2B2B2",
"/	c #A1A1A1",
"(	c #777777",
"_	c #B0B0B0",
":	c #ABABAB",
"<	c #A3A3A3",
"[	c #9A9A9A",
"}	c #909090",
"|	c #9E9E9E",
"1	c #696969",
"2	c #878787",
"3	c #9D9D9D",
"4	c #969696",
"5	c #888888",
"6	c #7F7F7F",
"7	c #6F6F6F",
"8	c #8F8F8F",
"9	c #A7A7A7",
"0	c #A9A9A9",
"a	c #929292",
"b	c #737373",
"c	c #686868",
"d	c #797979",
"e	c #9B9B9B",
"f	c #B8B8B8",
"g	c #C5C5C5",
"h	c #BABABA",
"i	c #9C9C9C",
"j	c #808080",
"k	c #A5A5A5",
"l	c #C7C7C7",
"m	c #C0C0C0",
"n	c #848484",
"o	c #D5D5D5",
"p	c #989898",
"q	c #E0E0E0",
"r	c #AEAEAE",
"s	c #000000",
"t	c #BFBFBF",
"u	c #676767",
"v	c #F8F8F8",
"w	c #F3F3F3",
"x	c #EDEDED",
"y	c #E8E8E8",
"z	c #E2E2E2",
"A	c #DDDDDD",
"B	c #B4B4B4",
"C	c #7C7C7C",
"D	c #F2F2F2",
"E	c #ECECEC",
"F	c #DCDCDC",
"G	c #D7D7D7",
"H	c #585858",
"I	c #EBEBEB",
"J	c #E6E6E6",
"K	c #D6D6D6",
"L	c #D0D0D0",
"M	c #CBCBCB",
"N	c #1C1C1C",
"O	c #E5E5E5",
"P	c #DFDFDF",
"Q	c #D4D4D4",
"R	c #C4C4C4",
"S	c #BEBEBE",
"T	c #D3D3D3",
"U	c #CECECE",
"V	c #D2D2D2",
"W	c #CDCDCD",
"X	c #C2C2C2",
"Y	c #BCBCBC",
"Z	c #B7B7B7",
".                       ",
"..                      ",
".+.                     ",
".@#.                    ",
".$%&.                   ",
".*&$=-                  ",
".;>,')!                 ",
".~{]^{/!                ",
".~(_:<[}.               ",
".|12[3456.              ",
".3789^0abc!             ",
".3defgh~..              ",
".ijkl%m.                ",
".in{.ho.                ",
".p.. .qj.               ",
"..   .=r.     sssssssss ",
"      .tu.    svwxyzA@s ",
"      .BC.    sDE+sFG&s ",
"       .~H.   sIJ#sKLMs ",
"       N:1.   sOsssssgs ",
"        ..    sP%Qs>RSs ",
"              s@TUs,*fs ",
"              sVWlXYZ)s ",
"              sssssssss ",
"                        ",
"                        "};
