/* XPM */
static char * tool_icon_mix_xpm[] = {
"24 24 25 1",
" 	c None",
".	c #1D1D1D",
"+	c #A1A1A1",
"@	c #9F9F9F",
"#	c #999999",
"$	c #949494",
"%	c #919191",
"&	c #8F8F8F",
"*	c #8C8C8C",
"=	c #868686",
"-	c #797979",
";	c #E5E5E5",
">	c #DBDBDB",
",	c #CFCFCF",
"'	c #C1C1C1",
")	c #B4B4B4",
"!	c #ACACAC",
"~	c #A0A0A0",
"{	c #7F7F7F",
"]	c #6A6A6A",
"^	c #696969",
"/	c #6C6C6C",
"(	c #737373",
"_	c #8A8A8A",
":	c #9A9A9A",
"         ...            ",
"         .+.            ",
"         .@.            ",
"         .#.            ",
"         .$.            ",
"         .%.            ",
"         .&.            ",
"         .*.            ",
"         .=.            ",
"..........-..........   ",
".;>,')!~${]^^^^^^^^^.   ",
"..........^..........   ",
"         .^.            ",
"         ./.            ",
"         .(.            ",
"         .{.            ",
"         ._.            ",
"         .$.            ",
"         .:.            ",
"         .@.            ",
"         ...            ",
"                        ",
"                        ",
"                        "};
