/* XPM */
static char * tool_icon_select_xpm[] = {
"24 24 63 1",
" 	c None",
".	c #1D1D1D",
"+	c #E7E7E7",
"@	c #D8D8D8",
"#	c #E1E1E1",
"$	c #CACACA",
"%	c #D9D9D9",
"&	c #D1D1D1",
"*	c #BDBDBD",
"=	c #C1C1C1",
"-	c #1B1B1B",
";	c #A8A8A8",
">	c #C9C9C9",
",	c #C3C3C3",
"'	c #B9B9B9",
")	c #B1B1B1",
"!	c #1A1A1A",
"~	c #9F9F9F",
"{	c #AAAAAA",
"]	c #BBBBBB",
"^	c #B2B2B2",
"/	c #A1A1A1",
"(	c #777777",
"_	c #B0B0B0",
":	c #ABABAB",
"<	c #A3A3A3",
"[	c #9A9A9A",
"}	c #909090",
"|	c #9E9E9E",
"1	c #696969",
"2	c #878787",
"3	c #9D9D9D",
"4	c #969696",
"5	c #888888",
"6	c #7F7F7F",
"7	c #6F6F6F",
"8	c #8F8F8F",
"9	c #A7A7A7",
"0	c #A9A9A9",
"a	c #929292",
"b	c #737373",
"c	c #686868",
"d	c #797979",
"e	c #9B9B9B",
"f	c #B8B8B8",
"g	c #C5C5C5",
"h	c #BABABA",
"i	c #9C9C9C",
"j	c #808080",
"k	c #A5A5A5",
"l	c #C7C7C7",
"m	c #C0C0C0",
"n	c #848484",
"o	c #D5D5D5",
"p	c #989898",
"q	c #E0E0E0",
"r	c #AEAEAE",
"s	c #BFBFBF",
"t	c #676767",
"u	c #B4B4B4",
"v	c #7C7C7C",
"w	c #585858",
"x	c #1C1C1C",
"    .                   ",
"    ..                  ",
"    .+.                 ",
"    .@#.                ",
"    .$%&.               ",
"    .*&$=-              ",
"    .;>,')!             ",
"    .~{]^{/!            ",
"    .~(_:<[}.           ",
"    .|12[3456.          ",
"    .3789^0abc!         ",
"    .3defgh~..          ",
"    .ijkl%m.            ",
"    .in{.ho.            ",
"    .p.. .qj.           ",
"    ..   .=r.           ",
"          .st.          ",
"          .uv.          ",
"           .~w.         ",
"           x:1.         ",
"            ..          ",
"                        ",
"                        ",
"                        "};
