/* XPM */
static char * tool_icon_move_xpm[] = {
"24 24 83 1",
" 	c None",
".	c #3D3D3D",
"+	c #A1A1A1",
"@	c #AEAEAE",
"#	c #B2B2B2",
"$	c #9B9B9B",
"%	c #C6C6C6",
"&	c #B7B7B7",
"*	c #A5A5A5",
"=	c #9A9A9A",
"-	c #B1B1B1",
";	c #B6B6B6",
">	c #ADADAD",
",	c #A2A2A2",
"'	c #969696",
")	c #8B8B8B",
"!	c #C2C2C2",
"~	c #ABABAB",
"{	c #8E8E8E",
"]	c #B8B8B8",
"^	c #A8A8A8",
"/	c #858585",
"(	c #AFAFAF",
"_	c #A6A6A6",
":	c #838383",
"<	c #C5C5C5",
"[	c #AAAAAA",
"}	c #A4A4A4",
"|	c #828282",
"1	c #757575",
"2	c #E0E0E0",
"3	c #DADADA",
"4	c #8C8C8C",
"5	c #737373",
"6	c #7B7B7B",
"7	c #676767",
"8	c #D0D0D0",
"9	c #DFDFDF",
"0	c #D8D8D8",
"a	c #CCCCCC",
"b	c #BBBBBB",
"c	c #979797",
"d	c #8A8A8A",
"e	c #787878",
"f	c #696969",
"g	c #818181",
"h	c #D1D1D1",
"i	c #E4E4E4",
"j	c #DBDBDB",
"k	c #D2D2D2",
"l	c #C1C1C1",
"m	c #A0A0A0",
"n	c #8D8D8D",
"o	c #747474",
"p	c #6B6B6B",
"q	c #626262",
"r	c #D6D6D6",
"s	c #BEBEBE",
"t	c #656565",
"u	c #666666",
"v	c #6C6C6C",
"w	c #6E6E6E",
"x	c #686868",
"y	c #6F6F6F",
"z	c #C9C9C9",
"A	c #878787",
"B	c #717171",
"C	c #616161",
"D	c #7C7C7C",
"E	c #8F8F8F",
"F	c #5B5B5B",
"G	c #2F2F2F",
"H	c #7D7D7D",
"I	c #989898",
"J	c #5F5F5F",
"K	c #868686",
"L	c #919191",
"M	c #5D5D5D",
"N	c #A9A9A9",
"O	c #A7A7A7",
"P	c #848484",
"Q	c #9E9E9E",
"R	c #9C9C9C",
"           .            ",
"          .+.           ",
"         .@#$.          ",
"        .%&@*=.         ",
"       .-;#>,').        ",
"       ...!~{...        ",
"         .]^/.          ",
"    ..   .(_:.   ..     ",
"   .<.   .[}|.   .1.    ",
"  .23.....4$5.....67.   ",
" .890ab~+cdef1d:/4gf7.  ",
".hijklmn|opffffffffffq. ",
" .rjs|tuvffffwxtttywx.  ",
"  .zA.....BfC.....5x.   ",
"   .D.   .EfF.   GH.    ",
"    ..   .IwF.   G.     ",
"         .c6J.          ",
"       ...=Ku...        ",
"       .^(-LHfM.        ",
"        .NOcPw.         ",
"         .QR:.          ",
"          .P.           ",
"           .            ",
"                        "};
