/* XPM */
static char * tool_icon_pencil_xpm[] = {
"24 24 95 2",
"  	c None",
". 	c #A7A7A7",
"+ 	c #E9E9E9",
"@ 	c #CBCBCB",
"# 	c #939393",
"$ 	c #727272",
"% 	c #9C9C9C",
"& 	c #E5E5E5",
"* 	c #F0F0F0",
"= 	c #989898",
"- 	c #8E8E8E",
"; 	c #686868",
"> 	c #3B3B3B",
", 	c #3A3A3A",
"' 	c #5D5D5D",
") 	c #595959",
"! 	c #777777",
"~ 	c #5F5F5F",
"{ 	c #272727",
"] 	c #0C0C0C",
"^ 	c #292929",
"/ 	c #979797",
"( 	c #696969",
"_ 	c #454545",
": 	c #2A2A2A",
"< 	c #1B1B1B",
"[ 	c #1A1A1A",
"} 	c #7F7F7F",
"| 	c #656565",
"1 	c #343434",
"2 	c #2F2F2F",
"3 	c #252525",
"4 	c #A6A6A6",
"5 	c #555555",
"6 	c #353535",
"7 	c #232323",
"8 	c #171717",
"9 	c #929292",
"0 	c #757575",
"a 	c #424242",
"b 	c #151515",
"c 	c #838383",
"d 	c #414141",
"e 	c #303030",
"f 	c #A2A2A2",
"g 	c #858585",
"h 	c #545454",
"i 	c #474747",
"j 	c #202020",
"k 	c #959595",
"l 	c #7C7C7C",
"m 	c #4D4D4D",
"n 	c #3E3E3E",
"o 	c #1F1F1F",
"p 	c #2E2E2E",
"q 	c #B2B2B2",
"r 	c #535353",
"s 	c #2D2D2D",
"t 	c #2B2B2B",
"u 	c #AAAAAA",
"v 	c #8F8F8F",
"w 	c #5B5B5B",
"x 	c #4F4F4F",
"y 	c #262626",
"z 	c #AFAFAF",
"A 	c #C0C0C0",
"B 	c #A5A5A5",
"C 	c #797979",
"D 	c #333333",
"E 	c #B7B7B7",
"F 	c #A3A3A3",
"G 	c #606060",
"H 	c #3D3D3D",
"I 	c #393939",
"J 	c #ADADAD",
"K 	c #CCCCCC",
"L 	c #B5B5B5",
"M 	c #6D6D6D",
"N 	c #484848",
"O 	c #CECECE",
"P 	c #BDBDBD",
"Q 	c #808080",
"R 	c #565656",
"S 	c #464646",
"T 	c #C3C3C3",
"U 	c #B1B1B1",
"V 	c #636363",
"W 	c #B9B9B9",
"X 	c #F2F2F2",
"Y 	c #DADADA",
"Z 	c #DBDBDB",
"` 	c #585858",
" .	c #C1C1C1",
"..	c #1C1C1C",
"+.	c #181818",
"                                                ",
"                . + @ #                         ",
"                $ % & * =                       ",
"              - ; > , ' )                       ",
"              ! ~ { { ] ^                       ",
"            / ( _ : < [                         ",
"            } | 1 2 ] 3                         ",
"          4 $ 5 6 7 8                           ",
"          9 0 a > b 3                           ",
"          c ; d e <                             ",
"        f g h i j {                             ",
"        k l m n o p                             ",
"      q k | r s t                         u .   ",
"      4 v w x y e                   z u u u u   ",
"    A B C ~ d D                 u u u u u u u   ",
"    E F ; G H I             u u u u u u u u J   ",
"  K L v M w N         u u u u u u u u u u u     ",
"  O P Q ! R S     u u u u u u u u u u u u       ",
"  T + U c V   u u u u u u u u u u u u u         ",
"  W X X Y h u u u u u u u u u u u 4             ",
"  E X Z ` u u u u u u u u u u                   ",
"  ;  .5 u u u u u u u u u                       ",
"  ..+.u u u u u u u                             ",
"    u u u u u u                                 "};
