#define tkeditpr.xbm_width 64
#define tkeditpr.xbm_height 64
static char tkeditpr.xbm_bits[] = {
   0x00, 0x00, 0x00, 0x00, 0x00, 0x00, 0x00, 0x00, 0x00, 0x00, 0x00, 0x00,
   0x00, 0x00, 0x00, 0x00, 0x00, 0x00, 0x00, 0x00, 0x00, 0x00, 0x00, 0x00,
   0x00, 0x10, 0x00, 0x00, 0x00, 0x00, 0x08, 0x00, 0x80, 0x13, 0x00, 0x00,
   0x00, 0x00, 0xc8, 0x01, 0xc0, 0xff, 0x01, 0x00, 0x00, 0x80, 0xff, 0x03,
   0xc0, 0x1f, 0x0e, 0x00, 0x00, 0x70, 0xf8, 0x03, 0xc0, 0x1f, 0x18, 0x00,
   0x00, 0x18, 0xf8, 0x03, 0x80, 0x3f, 0x20, 0x00, 0x00, 0x04, 0xfc, 0x01,
   0xf0, 0xff, 0x20, 0x00, 0x00, 0x04, 0xff, 0x0f, 0x60, 0xfe, 0x1f, 0x00,
   0x00, 0xf8, 0x7f, 0x06, 0x30, 0xfe, 0x01, 0x00, 0x00, 0x80, 0x7f, 0x0c,
   0x10, 0xfc, 0x07, 0x00, 0x00, 0xe0, 0x3f, 0x08, 0x18, 0xfe, 0x0b, 0x00,
   0x00, 0xd0, 0x7f, 0x18, 0x08, 0xfe, 0x03, 0x00, 0x00, 0xc0, 0x7f, 0x10,
   0x08, 0xf7, 0x03, 0x00, 0x00, 0xc0, 0xef, 0x10, 0x08, 0xe5, 0x03, 0x00,
   0x00, 0xc0, 0xa7, 0x10, 0xd8, 0x85, 0x01, 0x00, 0x00, 0x80, 0xa1, 0x1b,
   0x70, 0x00, 0x00, 0x00, 0x00, 0x00, 0x00, 0x0e, 0x00, 0x00, 0x00, 0x00,
   0x00, 0x00, 0x00, 0x00, 0x00, 0x00, 0x00, 0x00, 0x00, 0x00, 0x0e, 0x00,
   0x00, 0x00, 0x00, 0x00, 0x00, 0x00, 0x1f, 0x00, 0x00, 0x00, 0x00, 0x00,
   0x00, 0xc0, 0x0f, 0x00, 0x00, 0x00, 0x00, 0x00, 0x00, 0x20, 0x02, 0x00,
   0x00, 0x00, 0x00, 0x00, 0x00, 0xf8, 0x01, 0x00, 0x00, 0x00, 0x00, 0x00,
   0x00, 0x44, 0x00, 0x00, 0x00, 0x00, 0x00, 0x00, 0x00, 0x33, 0x00, 0x00,
   0x00, 0x00, 0x00, 0x00, 0xc0, 0x0c, 0x00, 0x00, 0x00, 0x00, 0x80, 0xff,
   0x7f, 0xfe, 0x07, 0x00, 0x00, 0x00, 0x40, 0x00, 0x98, 0x01, 0x04, 0x00,
   0x00, 0x00, 0x20, 0x02, 0x44, 0x00, 0x02, 0x00, 0x00, 0x00, 0x10, 0x03,
   0x37, 0x00, 0x01, 0x00, 0x00, 0x00, 0xc8, 0x81, 0x0f, 0x80, 0x00, 0x00,
   0x00, 0x00, 0x44, 0x40, 0x06, 0x40, 0x00, 0x00, 0x00, 0x00, 0x22, 0xe0,
   0x01, 0x20, 0x00, 0x00, 0x00, 0x00, 0x39, 0x00, 0x00, 0x10, 0x00, 0x00,
   0x00, 0x80, 0x0c, 0x00, 0x00, 0x08, 0x00, 0x00, 0x00, 0x40, 0x00, 0x00,
   0x00, 0x04, 0x00, 0x00, 0x00, 0x20, 0x00, 0x00, 0x00, 0x02, 0x00, 0x00,
   0x00, 0xe0, 0xff, 0xff, 0xff, 0x01, 0x00, 0x00, 0x00, 0x00, 0x00, 0x00,
   0x00, 0x00, 0x00, 0x00, 0x00, 0x00, 0x00, 0x00, 0x00, 0x00, 0x00, 0x00,
   0x00, 0x00, 0x00, 0x00, 0x00, 0x00, 0x00, 0x00, 0x00, 0x00, 0x00, 0x00,
   0x00, 0x00, 0x00, 0x00, 0x00, 0x00, 0x00, 0x00, 0x00, 0x00, 0x00, 0x00,
   0x70, 0x00, 0x00, 0x00, 0x00, 0x00, 0x00, 0x0e, 0xd8, 0x85, 0x01, 0x00,
   0x00, 0x80, 0xa1, 0x1b, 0x08, 0xe5, 0x03, 0x00, 0x00, 0xc0, 0xa7, 0x10,
   0x08, 0xf7, 0x03, 0x00, 0x00, 0xc0, 0xef, 0x10, 0x08, 0xfe, 0x03, 0x00,
   0x00, 0xc0, 0x7f, 0x10, 0x18, 0xfe, 0x0b, 0x00, 0x00, 0xd0, 0x7f, 0x18,
   0x10, 0xfc, 0x07, 0x00, 0x00, 0xe0, 0x3f, 0x08, 0x30, 0xfe, 0x01, 0x00,
   0x00, 0x80, 0x7f, 0x0c, 0x60, 0xfe, 0x1f, 0x00, 0x00, 0xf8, 0x7f, 0x06,
   0xf0, 0xff, 0x20, 0x00, 0x00, 0x04, 0xff, 0x0f, 0x80, 0x3f, 0x20, 0x00,
   0x00, 0x04, 0xfc, 0x01, 0xc0, 0x1f, 0x18, 0x00, 0x00, 0x18, 0xf8, 0x03,
   0xc0, 0x1f, 0x0e, 0x00, 0x00, 0x70, 0xf8, 0x03, 0xc0, 0xff, 0x01, 0x00,
   0x00, 0x80, 0xff, 0x03, 0x80, 0x13, 0x00, 0x00, 0x00, 0x00, 0xc8, 0x01,
   0x00, 0x10, 0x00, 0x00, 0x00, 0x00, 0x08, 0x00, 0x00, 0x00, 0x00, 0x00,
   0x00, 0x00, 0x00, 0x00, 0x00, 0x00, 0x00, 0x00, 0x00, 0x00, 0x00, 0x00,
   0x00, 0x00, 0x00, 0x00, 0x00, 0x00, 0x00, 0x00};
