/* XPM */
static char * button_plain_xpm[] = {
"15 15 2 1",
" 	c None",
".	c #FFFFFF",
"               ",
"     .....     ",
"   ...   ...   ",
"  ..       ..  ",
"  .         .  ",
" ..         .. ",
" .           . ",
" .           . ",
" .           . ",
" ..         .. ",
"  .         .  ",
"  ..       ..  ",
"   ...   ...   ",
"     .....     ",
"               "};
