/* XPM */
static char * cshadow_white_xpm[] = {
"10 10 15 1",
" 	c None",
".	c #E8E7E8",
"+	c #CCCDCD",
"@	c #B2B2B2",
"#	c #B1B1B1",
"$	c #979797",
"%	c #969696",
"&	c #7C7C7C",
"*	c #7B7B7B",
"=	c #626162",
"-	c #616061",
";	c #474647",
">	c #2C2C2C",
",	c #111111",
"'	c #000000",
"..........",
".+++++++++",
".+@@@@@@@@",
".+#$$$$$$$",
".+@%&&&&&&",
".+@$*=====",
".+@$&-;;;;",
".+@$&=;>>>",
".+@$&=;>,,",
".+@$&=;>,'"};
