/* XPM */
static char * dash_xrun_xpm[] = {
"32 16 2 1",
" 	c None",
".	c #000000",
"                                ",
"                                ",
"                                ",
"                                ",
"                                ",
"    .. .. ....  .. .. ..  ..    ",
"    .. .. .. .. .. .. ..  ..    ",
"     ...  .. .. .. .. ... ..    ",
"     ...  ....  .. .. ......    ",
"    .. .. .. .. .. .. .. ...    ",
"    .. .. .. ..  ...  ..  ..    ",
"                                ",
"                                ",
"                                ",
"                                ",
"                                "};
