/* XPM */
static char * dash_loop_off_xpm[] = {
"32 16 2 1",
" 	c None",
".	c #AFAFAF",
"                                ",
"                                ",
"                                ",
"                                ",
"                                ",
"      ..    ...   ...  ....     ",
"      ..   .. .. .. .. .. ..    ",
"      ..   ..  . ..  . .. ..    ",
"      ..   ..  . ..  . ....     ",
"      ..   .. .. .. .. ..       ",
"      ....  ...   ...  ..       ",
"                                ",
"                                ",
"                                ",
"                                ",
"                                "};
