/* XPM */
static char * dash_font_big_xpm[] = {
"208 16 2 1",
" 	c None",
".	c #000000",
"    .......           .....        ........     ...........      ....       .... ...............     ........... ...............     .......         .......                                                    ",
"  ...........         .....      ............   .............    ....       .... ...............   ............. ...............   ...........     ...........                                                  ",
" .............       ......      .............  ..............   ....       .... ...............  .............. ...............  .............   .............                                                 ",
" .............       ......     ..............  ..............   ....       .... ...............  .............. ..............   .............   .............      ....                                       ",
".....    ......     .......     ....       ....           .....  ....       .... ....            .....                    .....  .....     ..... .....     .....     ....                                       ",
"....    .......    ........                ....            ....  ....       .... ....            ....                    .....   ....       .... ....       ....     ....                                       ",
"....   ........   .........         ..........        .........  .....      .... ...........     ...........             .....    ....     ....  ....       ....     ....                                       ",
"....  .... ....   .........       ............        ........    .............. .............   .............          .....      ...........   .....      ....                                                ",
".... ....  ....       .....      ............         ........    .............. ..............  ..............         .....      ...........    ..............                                                ",
"........   ....       .....      ..........           .........    .............  .............  ..............        .....      ....     ....   ..............     ....                                       ",
".......    ....       .....     .....                      ....      ...........            .... ....       ....       .....     ....       ....   .............     ....                                       ",
"......    .....       .....     ....                      .....             .... ....       .... ....       ....       ....      .....     .....     ...........     ....                                       ",
" .............        .....     ............... ..............              .... ..............  ..............        ....       .............             ....     ....            ....                       ",
" .............        .....     ............... ..............              ....  .............   .............        ....       .............             ....                     ....                       ",
"  ...........         .....     ............... .............               ....  ............    ............         ....        ...........              ....                     ....                       ",
"    .......           .....     ............... ...........                 ....    ........        ........           ....          .......                ....                     ....                       "};
