/* XPM */
static char * editmode_pencil_xpm[] = {
"48 48 169 2",
"  	g None",
". 	g #444444",
"+ 	g #4F4F4F",
"@ 	g #5B5B5B",
"# 	g #323232",
"$ 	g #020202",
"% 	g #4B4B4B",
"& 	g #878787",
"* 	g #7D7D7D",
"= 	g #626262",
"- 	g #505050",
"; 	g #333333",
"> 	g #060606",
", 	g #6D6D6D",
"' 	g #939393",
") 	g #A4A4A4",
"! 	g #A7A7A7",
"~ 	g #575757",
"{ 	g #3B3B3B",
"] 	g #434343",
"^ 	g #090909",
"/ 	g #A1A1A1",
"( 	g #BEBEBE",
"_ 	g #B2B2B2",
": 	g #696969",
"< 	g #494949",
"[ 	g #3D3D3D",
"} 	g #282828",
"| 	g #B5B5B5",
"1 	g #C6C6C6",
"2 	g #767676",
"3 	g #636363",
"4 	g #3C3C3C",
"5 	g #3E3E3E",
"6 	g #202020",
"7 	g #686868",
"8 	g #B7B7B7",
"9 	g #C5C5C5",
"0 	g #AFAFAF",
"a 	g #727272",
"b 	g #565656",
"c 	g #3A3A3A",
"d 	g #3F3F3F",
"e 	g #2B2B2B",
"f 	g #414141",
"g 	g #909090",
"h 	g #BFBFBF",
"i 	g #B9B9B9",
"j 	g #929292",
"k 	g #646464",
"l 	g #383838",
"m 	g #363636",
"n 	g #4D4D4D",
"o 	g #0F0F0F",
"p 	g #B3B3B3",
"q 	g #BDBDBD",
"r 	g #A2A2A2",
"s 	g #6A6A6A",
"t 	g #464646",
"u 	g #4E4E4E",
"v 	g #515151",
"w 	g #0E0E0E",
"x 	g #404040",
"y 	g #818181",
"z 	g #7E7E7E",
"A 	g #545454",
"B 	g #525252",
"C 	g #AAAAAA",
"D 	g #9E9E9E",
"E 	g #6C6C6C",
"F 	g #292929",
"G 	g #424242",
"H 	g #6B6B6B",
"I 	g #BBBBBB",
"J 	g #5A5A5A",
"K 	g #A0A0A0",
"L 	g #373737",
"M 	g #252525",
"N 	g #676767",
"O 	g #7B7B7B",
"P 	g #393939",
"Q 	g #535353",
"R 	g #2C2C2C",
"S 	g #9B9B9B",
"T 	g #C0C0C0",
"U 	g #A8A8A8",
"V 	g #7F7F7F",
"W 	g #1B1B1B",
"X 	g #C1C1C1",
"Y 	g #ACACAC",
"Z 	g #343434",
"` 	g #4A4A4A",
" .	g #797979",
"..	g #454545",
"+.	g #8D8D8D",
"@.	g #585858",
"#.	g #616161",
"$.	g #0D0D0D",
"%.	g #484848",
"&.	g #474747",
"*.	g #353535",
"=.	g #4C4C4C",
"-.	g #151515",
";.	g #BCBCBC",
">.	g #A3A3A3",
",.	g #5F5F5F",
"'.	g #0A0A0A",
").	g #595959",
"!.	g #8F8F8F",
"~.	g #171717",
"{.	g #7C7C7C",
"].	g #B1B1B1",
"^.	g #D8D8D8",
"/.	g #2E2E2E",
"(.	g #0C0C0C",
"_.	g #EEEEEE",
":.	g #D6D6D6",
"<.	g #141414",
"[.	g #919191",
"}.	g #FCFCFC",
"|.	g #D1D1D1",
"1.	g #8C8C8C",
"2.	g #6F6F6F",
"3.	g #1E1E1E",
"4.	g #E0E0E0",
"5.	g #F3F3F3",
"6.	g #D4D4D4",
"7.	g #828282",
"8.	g #F4F4F4",
"9.	g #FAFAFA",
"0.	g #B8B8B8",
"a.	g #CCCCCC",
"b.	g #161616",
"c.	g #B4B4B4",
"d.	g #EFEFEF",
"e.	g #F8F8F8",
"f.	g #FBFBFB",
"g.	g #ECECEC",
"h.	g #D2D2D2",
"i.	g #303030",
"j.	g #212121",
"k.	g #959595",
"l.	g #EAEAEA",
"m.	g #F9F9F9",
"n.	g #CECECE",
"o.	g #A9A9A9",
"p.	g #010101",
"q.	g #C7C7C7",
"r.	g #E2E2E2",
"s.	g #A5A5A5",
"t.	g #E8E8E8",
"u.	g #F2F2F2",
"v.	g #000000",
"w.	g #E3E3E3",
"x.	g #666666",
"y.	g #F5F5F5",
"z.	g #CFCFCF",
"A.	g #E4E4E4",
"B.	g #808080",
"C.	g #F1F1F1",
"D.	g #121212",
"E.	g #F7F7F7",
"F.	g #9A9A9A",
"G.	g #DADADA",
"H.	g #C2C2C2",
"I.	g #F0F0F0",
"J.	g #707070",
"K.	g #A6A6A6",
"L.	g #6E6E6E",
"                                                                                                ",
"                                                                                                ",
"                                                                                                ",
"                                                                                                ",
"                                                                                                ",
"                                                                                                ",
"                                                                                . + @ # $       ",
"                                                                              % & * = - ; >     ",
"                                                                            , ' ) ! ~ { ] ^     ",
"                                                                          % / ( _ : < # [ }     ",
"                                                                        . ' | 1 2 3 4 # 5 6     ",
"                                                                        7 8 9 0 a b 5 c d e     ",
"                                                                      f g h i j k 4 l m n o     ",
"                                                                      = p q r s t d 4 u v w     ",
"                                                                    x y q | z b ] d ; A e       ",
"                                                                  5 B C q D E 5 f l v f F       ",
"                                                                  G H I 8 * ~ 5 c l J m         ",
"                                                                  x K h r E l L m @ . M         ",
"                                                                ] N I q O d P ; t Q R           ",
"                                                                G S T U E 4 P x ~ e w           ",
"                                                              t E I h V ] c L B = W             ",
"                                                              A ' X Y , d P Z A e o             ",
"                                                            ` , I T  .] { L b J W               ",
"                                                            ..+.h U @.d l l #.R $.              ",
"                                                          %.&.8 I = d P *.b =.-.                ",
"                                                          ..2 ;.>.G c *.< ,.} '.                ",
"                                                        =.5 p 8 ] 5 P L ).; w                   ",
"                                                        k !.i j d c *.` A ~.                    ",
"                                                        {.].^. .u L m = /.(.                    ",
"                                                        _.:.1 V B < ..: <.                      ",
"                                                      [.}.|.o ( 1., 2.3.-.                      ",
"                                                    7 | 4.5.6.R . 7.@ ~.                        ",
"                                                  O p 8.9._.0.a.} t [ b.                        ",
"                                                ).c.d.e.f.g.h.` t i.j.                          ",
"                                                k.l.5.f.m.l.n.o.R p.                            ",
"                                                q.d.r.N e.l.q.s.=                               ",
"                                                t.u./ v.e.w.T ! x.                              ",
"                                                g.y.;.z.A.h ) B.:                               ",
"                                                C.e._ t.1 ' 2 V                                 ",
"                                                y.q.r.|.{.@ v.D.                                ",
"                                                E.F.G.k v.v.                                    ",
"                                                H.I.J.v.                                        ",
"                                                K.L.v.                                          ",
"                                                B v.                                            ",
"                                G . %.%.%.%.%...#                                               ",
"                                                                                                ",
"                                                                                                ",
"                                                                                                "};
