/* XPM */
static char * editmode_select_xpm[] = {
"48 48 99 2",
"  	c None",
". 	c #0A0A0A",
"+ 	c #333333",
"@ 	c #767676",
"# 	c #282828",
"$ 	c #EFEFEF",
"% 	c #383838",
"& 	c #666666",
"* 	c #FBFBFB",
"= 	c #6B6B6B",
"- 	c #5D5D5D",
"; 	c #484848",
"> 	c #E7E7E7",
", 	c #505050",
"' 	c #5B5B5B",
") 	c #808080",
"! 	c #FCFCFC",
"~ 	c #F9F9F9",
"{ 	c #787878",
"] 	c #747474",
"^ 	c #696969",
"/ 	c #E0E0E0",
"( 	c #2C2C2C",
"_ 	c #8F8F8F",
": 	c #434343",
"< 	c #F8F8F8",
"[ 	c #FAFAFA",
"} 	c #474747",
"| 	c #858585",
"1 	c #616161",
"2 	c #565656",
"3 	c #323232",
"4 	c #F5F5F5",
"5 	c #FDFDFD",
"6 	c #BEBEBE",
"7 	c #8C8C8C",
"8 	c #4C4C4C",
"9 	c #F1F1F1",
"0 	c #606060",
"a 	c #3F3F3F",
"b 	c #2A2A2A",
"c 	c #F0F0F0",
"d 	c #FEFEFE",
"e 	c #969696",
"f 	c #393939",
"g 	c #4F4F4F",
"h 	c #2B2B2B",
"i 	c #E4E4E4",
"j 	c #F6F6F6",
"k 	c #3D3D3D",
"l 	c #636363",
"m 	c #5A5A5A",
"n 	c #3C3C3C",
"o 	c #DFDFDF",
"p 	c #F4F4F4",
"q 	c #B0B0B0",
"r 	c #2F2F2F",
"s 	c #3D3D3C",
"t 	c #5C5C5B",
"u 	c #F7F7F7",
"v 	c #525252",
"w 	c #0E0E0E",
"x 	c #1D1D1D",
"y 	c #EAEAEA",
"z 	c #EDEDED",
"A 	c #D8D8D8",
"B 	c #141313",
"C 	c #E6E6E6",
"D 	c #E2E2E2",
"E 	c #000000",
"F 	c #A5A5A5",
"G 	c #0B0B0B",
"H 	c #262626",
"I 	c #1E1E1E",
"J 	c #1C1C1C",
"K 	c #5E5E5E",
"L 	c #7B7B7A",
"M 	c #585757",
"N 	c #303030",
"O 	c #2E2E2E",
"P 	c #292929",
"Q 	c #A6A6A6",
"R 	c #696868",
"S 	c #555454",
"T 	c #454544",
"U 	c #4C4B4B",
"V 	c #B5B5B5",
"W 	c #848484",
"X 	c #646363",
"Y 	c #555555",
"Z 	c #5B5A5A",
"` 	c #282727",
" .	c #363535",
"..	c #545453",
"+.	c #40403F",
"@.	c #595958",
"#.	c #50504F",
"$.	c #3F3F3E",
"%.	c #383737",
"                                                                                                ",
"                                                                                                ",
"                                                                                                ",
"                                                                                                ",
"                                                                                                ",
"                                                                                                ",
"                                                                                                ",
"                                                                                                ",
"                                                                                                ",
"                                                                                                ",
"                                                                                                ",
"                                    . .                                                         ",
"                                    . . .                                                       ",
"                                    . + . .                                                     ",
"                                    . @ # . .                                                   ",
"                                    . $ % & . .                                                 ",
"                                    . * = - ; . .                                               ",
"                                    . * > , ' ) . .                                             ",
"                                    . ! ~ { ; ] ^ . .                                           ",
"                                    . ~ * / ( _ : ' . .                                         ",
"                                    . < ! [ } | 1 2 3 . .                                       ",
"                                    . 4 [ 5 6 , 7 8 , 3 . .                                     ",
"                                    . 9 ~ [ ~ 8 - 0 1 a b . .                                   ",
"                                    . c [ 4 d e f - g ; h ( . .                                 ",
"                                    . i 4 j [ c k l l m n . . .                                 ",
"                                    . o 4 j p d q r | . . . s t                                 ",
"                                    . 9 u u 4 * 5 v . . w x                                     ",
"                                    . y c p z . d A } . B                                       ",
"                                    . C D . . . . ~ m . .                                       ",
"                                    . . . . E E . d F 1 .                                       ",
"                                    . G k H I J . . 9 K . .                                     ",
"                                    L M s N O O P . d Q m .                                     ",
"                                      R S       T . . > @ . .                                   ",
"                                                  U . d V W .                                   ",
"                                                  X . . < V . .                                 ",
"                                                    Y . . . . Z                                 ",
"                                                    R . . `  ...                                ",
"                                                      Z +. .a @.                                ",
"                                                      #.$.%.                                    ",
"                                                                                                ",
"                                                                                                ",
"                                                                                                ",
"                                                                                                ",
"                                                                                                ",
"                                                                                                ",
"                                                                                                ",
"                                                                                                ",
"                                                                                                "};
