/* XPM */
static char * error_xpm[] = {
"16 16 107 2",
"  	c None",
". 	c #AA6756",
"+ 	c #C55A42",
"@ 	c #D85338",
"# 	c #D14B31",
"$ 	c #B43F2A",
"% 	c #8B3020",
"& 	c #906459",
"* 	c #CA6249",
"= 	c #DC4220",
"- 	c #D83B1B",
"; 	c #D43719",
"> 	c #CF3317",
", 	c #CB2F15",
"' 	c #C72B13",
") 	c #A0210F",
"! 	c #CA6048",
"~ 	c #DC3F1C",
"{ 	c #D73B1A",
"] 	c #D33719",
"^ 	c #C22711",
"/ 	c #BE2310",
"( 	c #95190B",
"_ 	c #AA6859",
": 	c #DB3F1C",
"< 	c #D73A1A",
"[ 	c #CA2F15",
"} 	c #C62B13",
"| 	c #BA1F0E",
"1 	c #B51B0C",
"2 	c #6B0E06",
"3 	c #C35139",
"4 	c #D4391A",
"5 	c #CE6B58",
"6 	c #D06D5B",
"7 	c #CD6A59",
"8 	c #CA6657",
"9 	c #C66355",
"0 	c #C36054",
"a 	c #C05D52",
"b 	c #BB483D",
"c 	c #B1170A",
"d 	c #880E06",
"e 	c #D34225",
"f 	c #D03518",
"g 	c #EFEFEF",
"h 	c #F7F7F7",
"i 	c #F6F6F6",
"j 	c #F4F4F4",
"k 	c #F2F2F2",
"l 	c #F0F0F0",
"m 	c #EEEEEE",
"n 	c #E2BDBA",
"o 	c #AC1208",
"p 	c #930C05",
"q 	c #CB3418",
"r 	c #CC3217",
"s 	c #ECECEC",
"t 	c #F3F3F3",
"u 	c #F1F1F1",
"v 	c #EDEDED",
"w 	c #E0BAB8",
"x 	c #A80E06",
"y 	c #830803",
"z 	c #AE2D17",
"A 	c #C92E15",
"B 	c #CA3D29",
"C 	c #C8402E",
"D 	c #C43C2C",
"E 	c #C03628",
"F 	c #BC3326",
"G 	c #B82F24",
"H 	c #B42920",
"I 	c #AC1A12",
"J 	c #A20904",
"K 	c #610301",
"L 	c #872515",
"M 	c #C42912",
"N 	c #C02511",
"O 	c #BC210F",
"P 	c #B81D0D",
"Q 	c #B4190B",
"R 	c #B01509",
"S 	c #AB1108",
"T 	c #A70D06",
"U 	c #A30904",
"V 	c #910501",
"W 	c #300000",
"X 	c #9D1E0D",
"Y 	c #B3190B",
"Z 	c #AF1509",
"` 	c #AB1107",
" .	c #980502",
"..	c #570000",
"+.	c #020000",
"@.	c #93170A",
"#.	c #B2180B",
"$.	c #A60D05",
"%.	c #910401",
"&.	c #540000",
"*.	c #070000",
"=.	c #670C05",
"-.	c #810C05",
";.	c #8B0A04",
">.	c #7F0602",
",.	c #5E0200",
"'.	c #2D0000",
"                                ",
"                                ",
"        . + @ # $ %             ",
"    & * = - ; > , ' )           ",
"    ! ~ { ] > , ' ^ / (         ",
"  _ : < ] > [ } ^ / | 1 2       ",
"  3 4 5 6 7 8 9 0 a b c d       ",
"  e f g h i j k l m n o p       ",
"  q r s t k u g m v w x y       ",
"  z A B C D E F G H I J K       ",
"  L M N O P Q R S T U V W       ",
"    X O P Y Z ` T U  ...+.      ",
"      @.#.Z ` $.J %.&.*.        ",
"        =.-.;.>.,.'.            ",
"                                ",
"                                "};
