/* XPM */
static char * ffwd_xpm[] = {
"16 25 41 1",
" 	c None",
".	c #000000",
"+	c #F7F7F7",
"@	c #3F413D",
"#	c #FFFBFF",
"$	c #F4F5F4",
"%	c #5B5F58",
"&	c #F6F3F0",
"*	c #F6F4F3",
"=	c #757D75",
"-	c #F6F6F6",
";	c #F3F4F3",
">	c #F1F1ED",
",	c #99A399",
"'	c #F7F4F0",
")	c #F0F3F0",
"!	c #E9EDE9",
"~	c #DFE7DF",
"{	c #E8ECE8",
"]	c #9AAD9A",
"^	c #8FB085",
"/	c #89AD81",
"(	c #88AA7B",
"_	c #86A77B",
":	c #729663",
"<	c #314C2A",
"[	c #87AD7F",
"}	c #85AB7D",
"|	c #86AA7B",
"1	c #698F61",
"2	c #35402E",
"3	c #8DB085",
"4	c #89AA7B",
"5	c #65895C",
"6	c #2A4125",
"7	c #85A776",
"8	c #5E8656",
"9	c #182A15",
"0	c #678E5F",
"a	c #10190E",
"b	c #090E08",
"                ",
"                ",
"                ",
"                ",
"                ",
".       .       ",
"..      ..      ",
"...     ...     ",
".+..    .+@.    ",
".#$..   .#$%.   ",
".+&*=.  .+&*=.  ",
".+-;>,. .+-;>,. ",
".')!~{]..')!~{].",
".^/(_:<..^/(_:<.",
".[}|12. .[}|12. ",
".3456.  .3456.  ",
".789.   .789.   ",
".0a.    .0a.    ",
".b.     .b.     ",
"..      ..      ",
".       .       ",
"                ",
"                ",
"                ",
"                "};
