/* XPM */
static char * lvl_xpm[] = {
"40 32 41 1",
" 	c None",
".	c #00FF00",
"+	c #08FF00",
"@	c #11FF00",
"#	c #1AFF00",
"$	c #23FF00",
"%	c #2CFF00",
"&	c #35FF00",
"*	c #3EFF00",
"=	c #47FF00",
"-	c #50FF00",
";	c #59FF00",
">	c #62FF00",
",	c #6BFF00",
"'	c #74FF00",
")	c #7DFF00",
"!	c #8AFF00",
"~	c #96FF00",
"{	c #A2FF00",
"]	c #AEFF00",
"^	c #BAFF00",
"/	c #C6FF00",
"(	c #D3FF00",
"_	c #DFFF00",
":	c #EBFF00",
"<	c #F6FE00",
"[	c #F7F100",
"}	c #F7E400",
"|	c #F8D700",
"1	c #F8CA00",
"2	c #F8BD00",
"3	c #F9B000",
"4	c #F9A300",
"5	c #FA9600",
"6	c #FA8900",
"7	c #FB7800",
"8	c #FB6000",
"9	c #FC4800",
"0	c #FD3000",
"a	c #FE1800",
"b	c #FF0000",
".+@#$%&*=-;>,')!~{]^/(_:<[}|1234567890ab",
".+@#$%&*=-;>,')!~{]^/(_:<[}|1234567890ab",
".+@#$%&*=-;>,')!~{]^/(_:<[}|1234567890ab",
".+@#$%&*=-;>,')!~{]^/(_:<[}|1234567890ab",
".+@#$%&*=-;>,')!~{]^/(_:<[}|1234567890ab",
".+@#$%&*=-;>,')!~{]^/(_:<[}|1234567890ab",
".+@#$%&*=-;>,')!~{]^/(_:<[}|1234567890ab",
".+@#$%&*=-;>,')!~{]^/(_:<[}|1234567890ab",
".+@#$%&*=-;>,')!~{]^/(_:<[}|1234567890ab",
".+@#$%&*=-;>,')!~{]^/(_:<[}|1234567890ab",
".+@#$%&*=-;>,')!~{]^/(_:<[}|1234567890ab",
".+@#$%&*=-;>,')!~{]^/(_:<[}|1234567890ab",
".+@#$%&*=-;>,')!~{]^/(_:<[}|1234567890ab",
".+@#$%&*=-;>,')!~{]^/(_:<[}|1234567890ab",
".+@#$%&*=-;>,')!~{]^/(_:<[}|1234567890ab",
".+@#$%&*=-;>,')!~{]^/(_:<[}|1234567890ab",
".+@#$%&*=-;>,')!~{]^/(_:<[}|1234567890ab",
".+@#$%&*=-;>,')!~{]^/(_:<[}|1234567890ab",
".+@#$%&*=-;>,')!~{]^/(_:<[}|1234567890ab",
".+@#$%&*=-;>,')!~{]^/(_:<[}|1234567890ab",
".+@#$%&*=-;>,')!~{]^/(_:<[}|1234567890ab",
".+@#$%&*=-;>,')!~{]^/(_:<[}|1234567890ab",
".+@#$%&*=-;>,')!~{]^/(_:<[}|1234567890ab",
".+@#$%&*=-;>,')!~{]^/(_:<[}|1234567890ab",
".+@#$%&*=-;>,')!~{]^/(_:<[}|1234567890ab",
".+@#$%&*=-;>,')!~{]^/(_:<[}|1234567890ab",
".+@#$%&*=-;>,')!~{]^/(_:<[}|1234567890ab",
".+@#$%&*=-;>,')!~{]^/(_:<[}|1234567890ab",
".+@#$%&*=-;>,')!~{]^/(_:<[}|1234567890ab",
".+@#$%&*=-;>,')!~{]^/(_:<[}|1234567890ab",
".+@#$%&*=-;>,')!~{]^/(_:<[}|1234567890ab",
".+@#$%&*=-;>,')!~{]^/(_:<[}|1234567890ab"};
