/* XPM */
static char * mix_tool_curpos_xpm[] = {
"3 16 3 1",
" 	c None",
".	c #FFFFFF",
"+	c #3AC1B6",
"...",
".+.",
".+.",
".+.",
".+.",
".+.",
".+.",
".+.",
".+.",
".+.",
".+.",
".+.",
".+.",
".+.",
".+.",
"..."};
