/* XPM */
static char * mute_off_xpm[] = {
"15 15 2 1",
" 	c None",
".	c #5E5E5E",
"               ",
" .......       ",
" .......       ",
" .... ..       ",
" .......       ",
" .......       ",
" .......       ",
" .....         ",
" ..... ..      ",
" ..... ..      ",
" ..... ......  ",
" ...   ......  ",
" ..... ......  ",
" ..... ......  ",
"               "};
