/* XPM */
static char * pause_xpm[] = {
"24 24 14 1",
" 	c None",
".	c #000000",
"+	c #EEEEE6",
"@	c #E6EAE6",
"#	c #FFFFFF",
"$	c #A4BE94",
"%	c #9CBE94",
"&	c #9CBA8B",
"*	c #94B28B",
"=	c #94B68B",
"-	c #8BAE83",
";	c #83AA7B",
">	c #396531",
",	c #416539",
"                        ",
"                        ",
"                        ",
"                        ",
"                        ",
"       .... ....        ",
"       .+@. .+@.        ",
"       .##. .##.        ",
"       .##. .##.        ",
"       .##. .##.        ",
"       .##. .##.        ",
"       .##. .##.        ",
"       .$%. .$%.        ",
"       .&%. .&%.        ",
"       .$%. .$%.        ",
"       .*=. .*=.        ",
"       .-;. .-;.        ",
"       .>,. .>,.        ",
"       .... ....        ",
"                        ",
"                        ",
"                        ",
"                        ",
"                        "};
