/* XPM */
static char * record_xpm[] = {
"16 25 96 2",
"  	c None",
". 	c #080000",
"+ 	c #100408",
"@ 	c #100400",
"# 	c #180808",
"$ 	c #180408",
"% 	c #000000",
"& 	c #B4A5A4",
"* 	c #D5BEC5",
"= 	c #DECECD",
"- 	c #E6CED5",
"; 	c #CDB6BD",
"> 	c #BD9DA4",
", 	c #7B5D62",
"' 	c #200808",
") 	c #290808",
"! 	c #AC9DA4",
"~ 	c #E6D2D5",
"{ 	c #FFEAEE",
"] 	c #F6E2E6",
"^ 	c #F6DEE6",
"/ 	c #EEDEDE",
"( 	c #EEDADE",
"_ 	c #EED2D5",
": 	c #EECACD",
"< 	c #AC7D83",
"[ 	c #6A4041",
"} 	c #310C08",
"| 	c #DED2D5",
"1 	c #FFEEF6",
"2 	c #F6E6E6",
"3 	c #EEE2E6",
"4 	c #E6DADE",
"5 	c #E6D6D5",
"6 	c #DEC2C5",
"7 	c #E6B6BD",
"8 	c #A46D6A",
"9 	c #310C10",
"0 	c #080008",
"a 	c #A4959C",
"b 	c #EEDEE6",
"c 	c #D5B6BD",
"d 	c #DEBABD",
"e 	c #BD8D94",
"f 	c #623C41",
"g 	c #290C10",
"h 	c #C5B6BD",
"i 	c #C5AAAC",
"j 	c #CDA5A4",
"k 	c #AC757B",
"l 	c #D5C6C5",
"m 	c #E6C6CD",
"n 	c #D5AEB4",
"o 	c #D5BABD",
"p 	c #E6DEDE",
"q 	c #E6CECD",
"r 	c #D5B2B4",
"s 	c #CDA5AC",
"t 	c #B4858B",
"u 	c #CDB2B4",
"v 	c #CDAAAC",
"w 	c #C599A4",
"x 	c #A47173",
"y 	c #B48D94",
"z 	c #D5C2C5",
"A 	c #CD9DA4",
"B 	c #B48183",
"C 	c #946162",
"D 	c #947173",
"E 	c #E6CACD",
"F 	c #CD999C",
"G 	c #C58D94",
"H 	c #A46D73",
"I 	c #7B484A",
"J 	c #290810",
"K 	c #CDA1A4",
"L 	c #CDAEB4",
"M 	c #DEBEC5",
"N 	c #C5898B",
"O 	c #834C52",
"P 	c #A4757B",
"Q 	c #C5959C",
"R 	c #CD9D9C",
"S 	c #C5999C",
"T 	c #B47D83",
"U 	c #B4757B",
"V 	c #8B595A",
"W 	c #7B4852",
"X 	c #200408",
"Y 	c #200400",
"Z 	c #9C7173",
"` 	c #BD898B",
" .	c #A4656A",
"..	c #835052",
"+.	c #733C41",
"@.	c #290C08",
"                                ",
"                                ",
"                                ",
"                                ",
"                                ",
"        . . + @ # $ $           ",
"    % % & * = - ; > , ' )       ",
"  % ! ~ { ] ^ / ( _ : < [ }     ",
"  . | 1 2 3 4 / 4 5 6 7 8 9     ",
"0 a 1 2 ] ~ b 4 3 ~ c d e f g   ",
". h 2 3 ~ ~ ~ ~ ~ ~ ~ i j k )   ",
"+ l 2 b ~ ~ ~ ~ ~ ~ i m n e 9   ",
"@ o 3 / p b ~ ~ ~ ~ q r s t )   ",
"' u ] b 3 ~ ~ ~ ~ ~ c v w x 9   ",
"$ y z ~ ~ ~ ~ ~ ~ c c A B C )   ",
"$ D s d m ~ E E c c F G H I J   ",
"  ' e K r 6 L M j F N H O g     ",
"  ' P Q K R A S G T U V W X     ",
"    Y ) Z e ` T  ...+.) $       ",
"        ' ' g @.9 } g           ",
"                                ",
"                                ",
"                                ",
"                                ",
"                                "};
