/* XPM */
static char * rwd_xpm[] = {
"16 25 41 1",
" 	c None",
".	c #000000",
"+	c #3F413D",
"@	c #F7F7F7",
"#	c #5B5F58",
"$	c #F4F5F4",
"%	c #FFFBFF",
"&	c #757D75",
"*	c #F6F4F3",
"=	c #F6F3F0",
"-	c #99A399",
";	c #F1F1ED",
">	c #F3F4F3",
",	c #F6F6F6",
"'	c #9AAD9A",
")	c #E8ECE8",
"!	c #DFE7DF",
"~	c #E9EDE9",
"{	c #F0F3F0",
"]	c #F7F4F0",
"^	c #314C2A",
"/	c #729663",
"(	c #86A77B",
"_	c #88AA7B",
":	c #89AD81",
"<	c #8FB085",
"[	c #35402E",
"}	c #698F61",
"|	c #86AA7B",
"1	c #85AB7D",
"2	c #87AD7F",
"3	c #2A4125",
"4	c #65895C",
"5	c #89AA7B",
"6	c #8DB085",
"7	c #182A15",
"8	c #5E8656",
"9	c #85A776",
"0	c #10190E",
"a	c #678E5F",
"b	c #090E08",
"                ",
"                ",
"                ",
"                ",
"                ",
"       .       .",
"      ..      ..",
"     ...     ...",
"    .+@.    ..@.",
"   .#$%.   ..$%.",
"  .&*=@.  .&*=@.",
" .-;>,@. .-;>,@.",
".')!~{]..')!~{].",
".^/(_:<..^/(_:<.",
" .[}|12. .[}|12.",
"  .3456.  .3456.",
"   .789.   .789.",
"    .0a.    .0a.",
"     .b.     .b.",
"      ..      ..",
"       .       .",
"                ",
"                ",
"                ",
"                "};
