/* XPM */
static char * solo_on_xpm[] = {
"15 15 2 1",
" 	c None",
".	c #FFFFFF",
"               ",
"         ..    ",
"        ...    ",
"       ....    ",
"      .....    ",
" ... ......    ",
" ... ......    ",
" ... ......    ",
" ... ......    ",
" ... ......    ",
"      .....    ",
"       ....    ",
"        ...    ",
"         ..    ",
"               "};
