/* XPM */
static char * speaker_xpm[] = {
"15 15 20 1",
" 	c None",
".	c #F6F6F6",
"+	c #ECECEC",
"@	c #E4E4E4",
"#	c #FFFFFF",
"$	c #EAEAEA",
"%	c #CBCBCB",
"&	c #FAFAFA",
"*	c #CFCFCF",
"=	c #DFDFDF",
"-	c #E0E0E0",
";	c #E8E8E8",
">	c #D9D9D9",
",	c #C7C7C7",
"'	c #A4A4A4",
")	c #B4B4B4",
"!	c #EEEEEE",
"~	c #C5C5C5",
"{	c #BFBFBF",
"]	c #A6A6A6",
"               ",
"           .+@ ",
"          ..#$ ",
"         .###$ ",
"      %.+####$ ",
"  ###&#######$ ",
" $#**=$######- ",
" $;*%%;######- ",
" $;**>$+$####$ ",
"  ,,,,%%+$###$ ",
"      '%%$$##$ ",
"         )$$!$ ",
"          ~,-$ ",
"           {{] ",
"               "};
