/* XPM */
static char * speaker2_xpm[] = {
"15 15 2 1",
" 	c None",
".	c #FFFFFF",
"               ",
"            .. ",
"            .. ",
"           ... ",
"          .... ",
"    .... ..... ",
"    .... ..... ",
"    .... ..... ",
"    .... ..... ",
"    .... ..... ",
"          .... ",
"           ... ",
"            .. ",
"            .. ",
"               "};
