/* XPM */
static char * tpt_dash_xpm[] = {
"208 48 12 1",
" 	c None",
".	c #6A6A6A",
"+	c #686868",
"@	c #5E5E5E",
"#	c #565656",
"$	c #555555",
"%	c #4C4C4C",
"&	c #3D3D3D",
"*	c #3B3B3B",
"=	c #202020",
"-	c #171717",
";	c #000000",
"                                                                                                                                                                                                                ",
"        .++++++++++++++++++++++++++++++++++++++++++++++++++++++++++++++++++++++++++++++++++++++++++++++++++++++++++++++++++++++++++++++++++++++++++++++++++++++++++++++++++++++++++++++++++++++++++++++.        ",
"      .@#$$$$$$$$$$$$$$$$$$$$$$$$$$$$$$$$$$$$$$$$$$$$$$$$$$$$$$$$$$$$$$$$$$$$$$$$$$$$$$$$$$$$$$$$$$$$$$$$$$$$$$$$$$$$$$$$$$$$$$$$$$$$$$$$$$$$$$$$$$$$$$$$$$$$$$$$$$$$$$$$$$$$$$$$$$$$$$$$$$$$$$$$$$$$$$#@.      ",
"    .@#%&**********************************************************************************************************************************************************************************************&%#@.    ",
"   .@%&*=----------------------------------------------------------------------------------------------------------------------------------------------------------------------------------------------=*&%@.   ",
"   @%&=--;;;;;;;;;;;;;;;;;;;;;;;;;;;;;;;;;;;;;;;;;;;;;;;;;;;;;;;;;;;;;;;;;;;;;;;;;;;;;;;;;;;;;;;;;;;;;;;;;;;;;;;;;;;;;;;;;;;;;;;;;;;;;;;;;;;;;;;;;;;;;;;;;;;;;;;;;;;;;;;;;;;;;;;;;;;;;;;;;;;;;;;;;;;;;;--=&%@   ",
"  .#&=-;;;--------------------------------------------------------------------------------------------------------------------------------------------------------------------------------------------;;;-=&#.  ",
"  @%*-;;--=******************************************************************************************************************************************************************************************=--;;-*%@  ",
" .#&=-;-=*&%$$$$$$$$$$$$$$$$$$$$$$$$$$$$$$$$$$$$$$$$$$$$$$$$$$$$$$$$$$$$$$$$$$$$$$$$$$$$$$$$$$$$$$$$$$$$$$$$$$$$$$$$$$$$$$$$$$$$$$$$$$$$$$$$$$$$$$$$$$$$$$$$$$$$$$$$$$$$$$$$$$$$$$$$$$$$$$$$$$$$$$$$%&*=-;-=&#. ",
" +$*-;;-*%#@++++++++++++++++++++++++++++++++++++++++++++++++++++++++++++++++++++++++++++++++++++++++++++++++++++++++++++++++++++++++++++++++++++++++++++++++++++++++++++++++++++++++++++++++++++++++@#%*-;;-*$+ ",
" +$*-;-=&#.                                                                                                                                                                                          .#&=-;-*$+ ",
" +$*-;-*%@                                                                                                                                                                                            @%*-;-*$+ ",
" +$*-;-*$+                                                                                                                                                                                            +$*-;-*$+ ",
" +$*-;-*$+                                                                                                                                                                                            +$*-;-*$+ ",
" +$*-;-*$+                                                                                                                                                                                            +$*-;-*$+ ",
" +$*-;-*$+                                                                                                                                                                                            +$*-;-*$+ ",
" +$*-;-*$+                                                                                                                                                                                            +$*-;-*$+ ",
" +$*-;-*$+                                                                                                                                                                                            +$*-;-*$+ ",
" +$*-;-*$+                                                                                                                                                                                            +$*-;-*$+ ",
" +$*-;-*$+                                                                                                                                                                                            +$*-;-*$+ ",
" +$*-;-*$+                                                                                                                                                                                            +$*-;-*$+ ",
" +$*-;-*$+                                                                                                                                                                                            +$*-;-*$+ ",
" +$*-;-*$+                                                                                                                                                                                            +$*-;-*$+ ",
" +$*-;-*$+                                                                                                                                                                                            +$*-;-*$+ ",
" +$*-;-*$+                                                                                                                                                                                            +$*-;-*$+ ",
" +$*-;-*$+                                                                                                                                                                                            +$*-;-*$+ ",
" +$*-;-*$+                                                                                                                                                                                            +$*-;-*$+ ",
" +$*-;-*$+                                                                                                                                                                                            +$*-;-*$+ ",
" +$*-;-*$+                                                                                                                                                                                            +$*-;-*$+ ",
" +$*-;-*$+                                                                                                                                                                                            +$*-;-*$+ ",
" +$*-;-*$+                                                                                                                                                                                            +$*-;-*$+ ",
" +$*-;-*$+                                                                                                                                                                                            +$*-;-*$+ ",
" +$*-;-*$+                                                                                                                                                                                            +$*-;-*$+ ",
" +$*-;-*$+                                                                                                                                                                                            +$*-;-*$+ ",
" +$*-;-*$+                                                                                                                                                                                            +$*-;-*$+ ",
" +$*-;-*$+                                                                                                                                                                                            +$*-;-*$+ ",
" +$*-;-*%@                                                                                                                                                                                            @%*-;-*$+ ",
" +$*-;-=&#.                                                                                                                                                                                          .#&=-;-*$+ ",
" +$*-;;-*%#@++++++++++++++++++++++++++++++++++++++++++++++++++++++++++++++++++++++++++++++++++++++++++++++++++++++++++++++++++++++++++++++++++++++++++++++++++++++++++++++++++++++++++++++++++++++++@#%*-;;-*$+ ",
" .#&=-;-=*&%$$$$$$$$$$$$$$$$$$$$$$$$$$$$$$$$$$$$$$$$$$$$$$$$$$$$$$$$$$$$$$$$$$$$$$$$$$$$$$$$$$$$$$$$$$$$$$$$$$$$$$$$$$$$$$$$$$$$$$$$$$$$$$$$$$$$$$$$$$$$$$$$$$$$$$$$$$$$$$$$$$$$$$$$$$$$$$$$$$$$$$$$%&*=-;-=&#. ",
"  @%*-;;--=******************************************************************************************************************************************************************************************=--;;-*%@  ",
"  .#&=-;;;--------------------------------------------------------------------------------------------------------------------------------------------------------------------------------------------;;;-=&#.  ",
"   @%&=--;;;;;;;;;;;;;;;;;;;;;;;;;;;;;;;;;;;;;;;;;;;;;;;;;;;;;;;;;;;;;;;;;;;;;;;;;;;;;;;;;;;;;;;;;;;;;;;;;;;;;;;;;;;;;;;;;;;;;;;;;;;;;;;;;;;;;;;;;;;;;;;;;;;;;;;;;;;;;;;;;;;;;;;;;;;;;;;;;;;;;;;;;;;;;;--=&%@   ",
"   .@%&*=----------------------------------------------------------------------------------------------------------------------------------------------------------------------------------------------=*&%@.   ",
"    .@#%&**********************************************************************************************************************************************************************************************&%#@.    ",
"      .@#$$$$$$$$$$$$$$$$$$$$$$$$$$$$$$$$$$$$$$$$$$$$$$$$$$$$$$$$$$$$$$$$$$$$$$$$$$$$$$$$$$$$$$$$$$$$$$$$$$$$$$$$$$$$$$$$$$$$$$$$$$$$$$$$$$$$$$$$$$$$$$$$$$$$$$$$$$$$$$$$$$$$$$$$$$$$$$$$$$$$$$$$$$$$$$#@.      ",
"        .++++++++++++++++++++++++++++++++++++++++++++++++++++++++++++++++++++++++++++++++++++++++++++++++++++++++++++++++++++++++++++++++++++++++++++++++++++++++++++++++++++++++++++++++++++++++++++++.        ",
"                                                                                                                                                                                                                "};
