/* XPM */
static char * warning_xpm[] = {
"16 16 75 1",
" 	c None",
".	c #000000",
"+	c #030201",
"@	c #5A4A2A",
"#	c #846C38",
"$	c #221908",
"%	c #201B10",
"&	c #CCA656",
"*	c #F9C148",
"=	c #F9BD3B",
"-	c #E8B037",
";	c #664D18",
">	c #120F09",
",	c #D9B057",
"'	c #EBC062",
")	c #B3924D",
"!	c #ECB338",
"~	c #564114",
"{	c #A08447",
"]	c #F9BE3D",
"^	c #F9BF42",
"/	c #605438",
"(	c #A67E27",
"_	c #E2AB35",
":	c #231A08",
"<	c #3A311F",
"[	c #F9C147",
"}	c #F9C24A",
"|	c #504429",
"1	c #8C6A21",
"2	c #A98027",
"3	c #B08D43",
"4	c #F9BF41",
"5	c #7B6533",
"6	c #C0912D",
"7	c #F1B739",
"8	c #37290C",
"9	c #18130A",
"0	c #F7C24F",
"a	c #D4A53E",
"b	c #382A0D",
"c	c #977223",
"d	c #5F4E2A",
"e	c #F9BE3E",
"f	c #E0B456",
"g	c #BC9542",
"h	c #F8BC3B",
"i	c #090702",
"j	c #866C33",
"k	c #F9BD3D",
"l	c #604F2B",
"m	c #0C0903",
"n	c #E1AA35",
"o	c #F0B639",
"p	c #2C210A",
"q	c #362A11",
"r	c #E5AE36",
"s	c #F8BD3B",
"t	c #DFAB3B",
"u	c #B0862A",
"v	c #F4B93A",
"w	c #F2B839",
"x	c #B08629",
"y	c #0D0A03",
"z	c #0E0B03",
"A	c #5C4515",
"B	c #9E7825",
"C	c #C7972F",
"D	c #DDA834",
"E	c #E9B137",
"F	c #D7A332",
"G	c #BA8D2B",
"H	c #8A6920",
"I	c #42320F",
"J	c #050401",
"                ",
"     ....       ",
"    .+@#$..     ",
"   .%&*=-;.     ",
"  .>,=')=!~.    ",
"  .{]^/.(=_:.   ",
" .<[=}|.1==2.   ",
" .3==45.6==78.  ",
".90===ab!===c.  ",
".de===fgh===-i  ",
".j===klmn===op. ",
".qrs==tuv==wxy. ",
" .zABCDEFGHIJ.  ",
"  ...........   ",
"     .....      ",
"                "};
