  0
SECTION
  2
HEADER
  9
$EXTMIN
 10
-20.600000
 20
-17.494938
  9
$EXTMAX
 10
17.400000
 20
22.094938
  9
$LIMMIN
 10
-20.600000
 20
-17.494938
  9
$LIMMAX
 10
17.400000
 20
22.094938
  9
$LUNITS
 70
  2
  9
$LUPREC
 70
  3
  9
$AUNITS
 70
  3
  9
$COORDS
 70
  1
  0
ENDSEC
  0
SECTION
  2
TABLES
  0
TABLE
  2
LAYER
 70
255
  0
LAYER
  2
0
  6
CONTINUOUS
 62
  2
 70
 64
  0
ENDTAB
  0
ENDSEC
  0
SECTION
  2
BLOCKS
  0
ENDSEC
  0
SECTION
  2
ENTITIES
  0
3DFACE
  8
0
 62
  2
  6
CONTINUOUS
 10
-20.600000
 20
1.500000
 30
-0.000000
 11
-20.123630
 21
5.726771
 31
0.097588
 12
-18.718408
 22
9.741595
 32
0.190282
 13
-18.718408
 23
9.741595
 33
0.190282
  0
3DFACE
  8
0
 62
  2
  6
CONTINUOUS
 10
-20.600000
 20
1.500000
 30
-0.000000
 11
-18.718408
 21
9.741595
 31
0.190282
 12
-16.454798
 22
13.343150
 32
0.273435
 13
-16.454798
 23
13.343150
 33
0.273435
  0
3DFACE
  8
0
 62
  2
  6
CONTINUOUS
 10
-20.600000
 20
1.500000
 30
-0.000000
 11
-16.454798
 21
13.343150
 31
0.273435
 12
-13.446306
 22
16.350841
 32
0.342877
 13
-13.446306
 23
16.350841
 33
0.342877
  0
3DFACE
  8
0
 62
  2
  6
CONTINUOUS
 10
-20.600000
 20
1.500000
 30
-0.000000
 11
-13.446306
 21
16.350841
 31
0.342877
 12
-9.843791
 22
18.613848
 32
0.395125
 13
-9.843791
 23
18.613848
 33
0.395125
  0
3DFACE
  8
0
 62
  2
  6
CONTINUOUS
 10
-20.600000
 20
1.500000
 30
-0.000000
 11
-9.843791
 21
18.613848
 31
0.395125
 12
-5.827898
 22
20.018695
 32
0.427560
 13
-5.827898
 23
20.018695
 33
0.427560
  0
3DFACE
  8
0
 62
  2
  6
CONTINUOUS
 10
-20.600000
 20
1.500000
 30
-0.000000
 11
-5.827898
 21
20.018695
 31
0.427560
 12
-1.600000
 22
20.494938
 32
0.438556
 13
-1.600000
 23
20.494938
 33
0.438556
  0
3DFACE
  8
0
 62
  2
  6
CONTINUOUS
 10
-20.600000
 20
1.500000
 30
-0.000000
 11
-1.600000
 21
20.494938
 31
0.438556
 12
2.627898
 22
20.018695
 32
0.427560
 13
2.627898
 23
20.018695
 33
0.427560
  0
3DFACE
  8
0
 62
  2
  6
CONTINUOUS
 10
-20.600000
 20
1.500000
 30
-0.000000
 11
2.627898
 21
20.018695
 31
0.427560
 12
6.643791
 22
18.613848
 32
0.395125
 13
6.643791
 23
18.613848
 33
0.395125
  0
3DFACE
  8
0
 62
  2
  6
CONTINUOUS
 10
-20.600000
 20
1.500000
 30
-0.000000
 11
6.643791
 21
18.613848
 31
0.395125
 12
10.246306
 22
16.350841
 32
0.342877
 13
10.246306
 23
16.350841
 33
0.342877
  0
3DFACE
  8
0
 62
  2
  6
CONTINUOUS
 10
-20.600000
 20
1.500000
 30
-0.000000
 11
10.246306
 21
16.350841
 31
0.342877
 12
13.254798
 22
13.343150
 32
0.273435
 13
13.254798
 23
13.343150
 33
0.273435
  0
3DFACE
  8
0
 62
  2
  6
CONTINUOUS
 10
-20.600000
 20
1.500000
 30
-0.000000
 11
13.254798
 21
13.343150
 31
0.273435
 12
15.518408
 22
9.741595
 32
0.190282
 13
15.518408
 23
9.741595
 33
0.190282
  0
3DFACE
  8
0
 62
  2
  6
CONTINUOUS
 10
-20.600000
 20
1.500000
 30
-0.000000
 11
15.518408
 21
9.741595
 31
0.190282
 12
16.923630
 22
5.726771
 32
0.097588
 13
16.923630
 23
5.726771
 33
0.097588
  0
3DFACE
  8
0
 62
  2
  6
CONTINUOUS
 10
-20.600000
 20
1.500000
 30
-0.000000
 11
16.923630
 21
5.726771
 31
0.097588
 12
17.400000
 22
1.500000
 32
-0.000000
 13
17.400000
 23
1.500000
 33
-0.000000
  0
3DFACE
  8
0
 62
  2
  6
CONTINUOUS
 10
-20.600000
 20
1.500000
 30
-0.000000
 11
17.400000
 21
1.500000
 31
-0.000000
 12
16.923630
 22
-2.726771
 32
-0.097588
 13
16.923630
 23
-2.726771
 33
-0.097588
  0
3DFACE
  8
0
 62
  2
  6
CONTINUOUS
 10
-20.600000
 20
1.500000
 30
-0.000000
 11
16.923630
 21
-2.726771
 31
-0.097588
 12
15.518408
 22
-6.741595
 32
-0.190282
 13
15.518408
 23
-6.741595
 33
-0.190282
  0
3DFACE
  8
0
 62
  2
  6
CONTINUOUS
 10
-20.600000
 20
1.500000
 30
-0.000000
 11
15.518408
 21
-6.741595
 31
-0.190282
 12
13.254798
 22
-10.343150
 32
-0.273435
 13
13.254798
 23
-10.343150
 33
-0.273435
  0
3DFACE
  8
0
 62
  2
  6
CONTINUOUS
 10
-20.600000
 20
1.500000
 30
-0.000000
 11
13.254798
 21
-10.343150
 31
-0.273435
 12
10.246306
 22
-13.350841
 32
-0.342877
 13
10.246306
 23
-13.350841
 33
-0.342877
  0
3DFACE
  8
0
 62
  2
  6
CONTINUOUS
 10
-20.600000
 20
1.500000
 30
-0.000000
 11
10.246306
 21
-13.350841
 31
-0.342877
 12
6.643791
 22
-15.613848
 32
-0.395125
 13
6.643791
 23
-15.613848
 33
-0.395125
  0
3DFACE
  8
0
 62
  2
  6
CONTINUOUS
 10
-20.600000
 20
1.500000
 30
-0.000000
 11
6.643791
 21
-15.613848
 31
-0.395125
 12
2.627898
 22
-17.018695
 32
-0.427560
 13
2.627898
 23
-17.018695
 33
-0.427560
  0
3DFACE
  8
0
 62
  2
  6
CONTINUOUS
 10
-20.600000
 20
1.500000
 30
-0.000000
 11
2.627898
 21
-17.018695
 31
-0.427560
 12
-1.600000
 22
-17.494938
 32
-0.438556
 13
-1.600000
 23
-17.494938
 33
-0.438556
  0
3DFACE
  8
0
 62
  2
  6
CONTINUOUS
 10
-20.600000
 20
1.500000
 30
-0.000000
 11
-1.600000
 21
-17.494938
 31
-0.438556
 12
-5.827898
 22
-17.018695
 32
-0.427560
 13
-5.827898
 23
-17.018695
 33
-0.427560
  0
3DFACE
  8
0
 62
  2
  6
CONTINUOUS
 10
-20.600000
 20
1.500000
 30
-0.000000
 11
-5.827898
 21
-17.018695
 31
-0.427560
 12
-9.843791
 22
-15.613848
 32
-0.395125
 13
-9.843791
 23
-15.613848
 33
-0.395125
  0
3DFACE
  8
0
 62
  2
  6
CONTINUOUS
 10
-20.600000
 20
1.500000
 30
-0.000000
 11
-9.843791
 21
-15.613848
 31
-0.395125
 12
-13.446306
 22
-13.350841
 32
-0.342877
 13
-13.446306
 23
-13.350841
 33
-0.342877
  0
3DFACE
  8
0
 62
  2
  6
CONTINUOUS
 10
-20.600000
 20
1.500000
 30
-0.000000
 11
-13.446306
 21
-13.350841
 31
-0.342877
 12
-16.454798
 22
-10.343150
 32
-0.273435
 13
-16.454798
 23
-10.343150
 33
-0.273435
  0
3DFACE
  8
0
 62
  2
  6
CONTINUOUS
 10
-20.600000
 20
1.500000
 30
-0.000000
 11
-16.454798
 21
-10.343150
 31
-0.273435
 12
-18.718408
 22
-6.741595
 32
-0.190282
 13
-18.718408
 23
-6.741595
 33
-0.190282
  0
3DFACE
  8
0
 62
  2
  6
CONTINUOUS
 10
-20.600000
 20
1.500000
 30
-0.000000
 11
-18.718408
 21
-6.741595
 31
-0.190282
 12
-20.123630
 22
-2.726771
 32
-0.097588
 13
-20.123630
 23
-2.726771
 33
-0.097588
  0
3DFACE
  8
0
 62
  2
  6
CONTINUOUS
 10
-20.600000
 20
3.100000
 30
-69.300000
 11
-20.123630
 21
7.326771
 31
-69.202412
 12
-20.123630
 22
5.726771
 32
0.097588
 13
-20.600000
 23
1.500000
 33
-0.000000
  0
3DFACE
  8
0
 62
  2
  6
CONTINUOUS
 10
-20.123630
 20
7.326771
 30
-69.202412
 11
-18.718408
 21
11.341595
 31
-69.109718
 12
-18.718408
 22
9.741595
 32
0.190282
 13
-20.123630
 23
5.726771
 33
0.097588
  0
3DFACE
  8
0
 62
  2
  6
CONTINUOUS
 10
-18.718408
 20
11.341595
 30
-69.109718
 11
-16.454798
 21
14.943150
 31
-69.026565
 12
-16.454798
 22
13.343150
 32
0.273435
 13
-18.718408
 23
9.741595
 33
0.190282
  0
3DFACE
  8
0
 62
  2
  6
CONTINUOUS
 10
-16.454798
 20
14.943150
 30
-69.026565
 11
-13.446306
 21
17.950841
 31
-68.957123
 12
-13.446306
 22
16.350841
 32
0.342877
 13
-16.454798
 23
13.343150
 33
0.273435
  0
3DFACE
  8
0
 62
  2
  6
CONTINUOUS
 10
-13.446306
 20
17.950841
 30
-68.957123
 11
-9.843791
 21
20.213848
 31
-68.904875
 12
-9.843791
 22
18.613848
 32
0.395125
 13
-13.446306
 23
16.350841
 33
0.342877
  0
3DFACE
  8
0
 62
  2
  6
CONTINUOUS
 10
-9.843791
 20
20.213848
 30
-68.904875
 11
-5.827898
 21
21.618695
 31
-68.872440
 12
-5.827898
 22
20.018695
 32
0.427560
 13
-9.843791
 23
18.613848
 33
0.395125
  0
3DFACE
  8
0
 62
  2
  6
CONTINUOUS
 10
-5.827898
 20
21.618695
 30
-68.872440
 11
-1.600000
 21
22.094938
 31
-68.861444
 12
-1.600000
 22
20.494938
 32
0.438556
 13
-5.827898
 23
20.018695
 33
0.427560
  0
3DFACE
  8
0
 62
  2
  6
CONTINUOUS
 10
-1.600000
 20
22.094938
 30
-68.861444
 11
2.627898
 21
21.618695
 31
-68.872440
 12
2.627898
 22
20.018695
 32
0.427560
 13
-1.600000
 23
20.494938
 33
0.438556
  0
3DFACE
  8
0
 62
  2
  6
CONTINUOUS
 10
2.627898
 20
21.618695
 30
-68.872440
 11
6.643791
 21
20.213848
 31
-68.904875
 12
6.643791
 22
18.613848
 32
0.395125
 13
2.627898
 23
20.018695
 33
0.427560
  0
3DFACE
  8
0
 62
  2
  6
CONTINUOUS
 10
6.643791
 20
20.213848
 30
-68.904875
 11
10.246306
 21
17.950841
 31
-68.957123
 12
10.246306
 22
16.350841
 32
0.342877
 13
6.643791
 23
18.613848
 33
0.395125
  0
3DFACE
  8
0
 62
  2
  6
CONTINUOUS
 10
10.246306
 20
17.950841
 30
-68.957123
 11
13.254798
 21
14.943150
 31
-69.026565
 12
13.254798
 22
13.343150
 32
0.273435
 13
10.246306
 23
16.350841
 33
0.342877
  0
3DFACE
  8
0
 62
  2
  6
CONTINUOUS
 10
13.254798
 20
14.943150
 30
-69.026565
 11
15.518408
 21
11.341595
 31
-69.109718
 12
15.518408
 22
9.741595
 32
0.190282
 13
13.254798
 23
13.343150
 33
0.273435
  0
3DFACE
  8
0
 62
  2
  6
CONTINUOUS
 10
15.518408
 20
11.341595
 30
-69.109718
 11
16.923630
 21
7.326771
 31
-69.202412
 12
16.923630
 22
5.726771
 32
0.097588
 13
15.518408
 23
9.741595
 33
0.190282
  0
3DFACE
  8
0
 62
  2
  6
CONTINUOUS
 10
16.923630
 20
7.326771
 30
-69.202412
 11
17.400000
 21
3.100000
 31
-69.300000
 12
17.400000
 22
1.500000
 32
-0.000000
 13
16.923630
 23
5.726771
 33
0.097588
  0
3DFACE
  8
0
 62
  2
  6
CONTINUOUS
 10
17.400000
 20
3.100000
 30
-69.300000
 11
16.923630
 21
-1.126771
 31
-69.397588
 12
16.923630
 22
-2.726771
 32
-0.097588
 13
17.400000
 23
1.500000
 33
-0.000000
  0
3DFACE
  8
0
 62
  2
  6
CONTINUOUS
 10
16.923630
 20
-1.126771
 30
-69.397588
 11
15.518408
 21
-5.141595
 31
-69.490282
 12
15.518408
 22
-6.741595
 32
-0.190282
 13
16.923630
 23
-2.726771
 33
-0.097588
  0
3DFACE
  8
0
 62
  2
  6
CONTINUOUS
 10
15.518408
 20
-5.141595
 30
-69.490282
 11
13.254798
 21
-8.743150
 31
-69.573435
 12
13.254798
 22
-10.343150
 32
-0.273435
 13
15.518408
 23
-6.741595
 33
-0.190282
  0
3DFACE
  8
0
 62
  2
  6
CONTINUOUS
 10
13.254798
 20
-8.743150
 30
-69.573435
 11
10.246306
 21
-11.750841
 31
-69.642877
 12
10.246306
 22
-13.350841
 32
-0.342877
 13
13.254798
 23
-10.343150
 33
-0.273435
  0
3DFACE
  8
0
 62
  2
  6
CONTINUOUS
 10
10.246306
 20
-11.750841
 30
-69.642877
 11
6.643791
 21
-14.013848
 31
-69.695125
 12
6.643791
 22
-15.613848
 32
-0.395125
 13
10.246306
 23
-13.350841
 33
-0.342877
  0
3DFACE
  8
0
 62
  2
  6
CONTINUOUS
 10
6.643791
 20
-14.013848
 30
-69.695125
 11
2.627898
 21
-15.418695
 31
-69.727560
 12
2.627898
 22
-17.018695
 32
-0.427560
 13
6.643791
 23
-15.613848
 33
-0.395125
  0
3DFACE
  8
0
 62
  2
  6
CONTINUOUS
 10
2.627898
 20
-15.418695
 30
-69.727560
 11
-1.600000
 21
-15.894938
 31
-69.738556
 12
-1.600000
 22
-17.494938
 32
-0.438556
 13
2.627898
 23
-17.018695
 33
-0.427560
  0
3DFACE
  8
0
 62
  2
  6
CONTINUOUS
 10
-1.600000
 20
-15.894938
 30
-69.738556
 11
-5.827898
 21
-15.418695
 31
-69.727560
 12
-5.827898
 22
-17.018695
 32
-0.427560
 13
-1.600000
 23
-17.494938
 33
-0.438556
  0
3DFACE
  8
0
 62
  2
  6
CONTINUOUS
 10
-5.827898
 20
-15.418695
 30
-69.727560
 11
-9.843791
 21
-14.013848
 31
-69.695125
 12
-9.843791
 22
-15.613848
 32
-0.395125
 13
-5.827898
 23
-17.018695
 33
-0.427560
  0
3DFACE
  8
0
 62
  2
  6
CONTINUOUS
 10
-9.843791
 20
-14.013848
 30
-69.695125
 11
-13.446306
 21
-11.750841
 31
-69.642877
 12
-13.446306
 22
-13.350841
 32
-0.342877
 13
-9.843791
 23
-15.613848
 33
-0.395125
  0
3DFACE
  8
0
 62
  2
  6
CONTINUOUS
 10
-13.446306
 20
-11.750841
 30
-69.642877
 11
-16.454798
 21
-8.743150
 31
-69.573435
 12
-16.454798
 22
-10.343150
 32
-0.273435
 13
-13.446306
 23
-13.350841
 33
-0.342877
  0
3DFACE
  8
0
 62
  2
  6
CONTINUOUS
 10
-16.454798
 20
-8.743150
 30
-69.573435
 11
-18.718408
 21
-5.141595
 31
-69.490282
 12
-18.718408
 22
-6.741595
 32
-0.190282
 13
-16.454798
 23
-10.343150
 33
-0.273435
  0
3DFACE
  8
0
 62
  2
  6
CONTINUOUS
 10
-18.718408
 20
-5.141595
 30
-69.490282
 11
-20.123630
 21
-1.126771
 31
-69.397588
 12
-20.123630
 22
-2.726771
 32
-0.097588
 13
-18.718408
 23
-6.741595
 33
-0.190282
  0
3DFACE
  8
0
 62
  2
  6
CONTINUOUS
 10
-20.123630
 20
-1.126771
 30
-69.397588
 11
-20.600000
 21
3.100000
 31
-69.300000
 12
-20.600000
 22
1.500000
 32
-0.000000
 13
-20.123630
 23
-2.726771
 33
-0.097588
  0
3DFACE
  8
0
 62
  2
  6
CONTINUOUS
 10
-20.600000
 20
3.100000
 30
-69.300000
 11
-20.123630
 21
7.326771
 31
-69.202412
 12
-18.718408
 22
11.341595
 32
-69.109718
 13
-18.718408
 23
11.341595
 33
-69.109718
  0
3DFACE
  8
0
 62
  2
  6
CONTINUOUS
 10
-20.600000
 20
3.100000
 30
-69.300000
 11
-18.718408
 21
11.341595
 31
-69.109718
 12
-16.454798
 22
14.943150
 32
-69.026565
 13
-16.454798
 23
14.943150
 33
-69.026565
  0
3DFACE
  8
0
 62
  2
  6
CONTINUOUS
 10
-20.600000
 20
3.100000
 30
-69.300000
 11
-16.454798
 21
14.943150
 31
-69.026565
 12
-13.446306
 22
17.950841
 32
-68.957123
 13
-13.446306
 23
17.950841
 33
-68.957123
  0
3DFACE
  8
0
 62
  2
  6
CONTINUOUS
 10
-20.600000
 20
3.100000
 30
-69.300000
 11
-13.446306
 21
17.950841
 31
-68.957123
 12
-9.843791
 22
20.213848
 32
-68.904875
 13
-9.843791
 23
20.213848
 33
-68.904875
  0
3DFACE
  8
0
 62
  2
  6
CONTINUOUS
 10
-20.600000
 20
3.100000
 30
-69.300000
 11
-9.843791
 21
20.213848
 31
-68.904875
 12
-5.827898
 22
21.618695
 32
-68.872440
 13
-5.827898
 23
21.618695
 33
-68.872440
  0
3DFACE
  8
0
 62
  2
  6
CONTINUOUS
 10
-20.600000
 20
3.100000
 30
-69.300000
 11
-5.827898
 21
21.618695
 31
-68.872440
 12
-1.600000
 22
22.094938
 32
-68.861444
 13
-1.600000
 23
22.094938
 33
-68.861444
  0
3DFACE
  8
0
 62
  2
  6
CONTINUOUS
 10
-20.600000
 20
3.100000
 30
-69.300000
 11
-1.600000
 21
22.094938
 31
-68.861444
 12
2.627898
 22
21.618695
 32
-68.872440
 13
2.627898
 23
21.618695
 33
-68.872440
  0
3DFACE
  8
0
 62
  2
  6
CONTINUOUS
 10
-20.600000
 20
3.100000
 30
-69.300000
 11
2.627898
 21
21.618695
 31
-68.872440
 12
6.643791
 22
20.213848
 32
-68.904875
 13
6.643791
 23
20.213848
 33
-68.904875
  0
3DFACE
  8
0
 62
  2
  6
CONTINUOUS
 10
-20.600000
 20
3.100000
 30
-69.300000
 11
6.643791
 21
20.213848
 31
-68.904875
 12
10.246306
 22
17.950841
 32
-68.957123
 13
10.246306
 23
17.950841
 33
-68.957123
  0
3DFACE
  8
0
 62
  2
  6
CONTINUOUS
 10
-20.600000
 20
3.100000
 30
-69.300000
 11
10.246306
 21
17.950841
 31
-68.957123
 12
13.254798
 22
14.943150
 32
-69.026565
 13
13.254798
 23
14.943150
 33
-69.026565
  0
3DFACE
  8
0
 62
  2
  6
CONTINUOUS
 10
-20.600000
 20
3.100000
 30
-69.300000
 11
13.254798
 21
14.943150
 31
-69.026565
 12
15.518408
 22
11.341595
 32
-69.109718
 13
15.518408
 23
11.341595
 33
-69.109718
  0
3DFACE
  8
0
 62
  2
  6
CONTINUOUS
 10
-20.600000
 20
3.100000
 30
-69.300000
 11
15.518408
 21
11.341595
 31
-69.109718
 12
16.923630
 22
7.326771
 32
-69.202412
 13
16.923630
 23
7.326771
 33
-69.202412
  0
3DFACE
  8
0
 62
  2
  6
CONTINUOUS
 10
-20.600000
 20
3.100000
 30
-69.300000
 11
16.923630
 21
7.326771
 31
-69.202412
 12
17.400000
 22
3.100000
 32
-69.300000
 13
17.400000
 23
3.100000
 33
-69.300000
  0
3DFACE
  8
0
 62
  2
  6
CONTINUOUS
 10
-20.600000
 20
3.100000
 30
-69.300000
 11
17.400000
 21
3.100000
 31
-69.300000
 12
16.923630
 22
-1.126771
 32
-69.397588
 13
16.923630
 23
-1.126771
 33
-69.397588
  0
3DFACE
  8
0
 62
  2
  6
CONTINUOUS
 10
-20.600000
 20
3.100000
 30
-69.300000
 11
16.923630
 21
-1.126771
 31
-69.397588
 12
15.518408
 22
-5.141595
 32
-69.490282
 13
15.518408
 23
-5.141595
 33
-69.490282
  0
3DFACE
  8
0
 62
  2
  6
CONTINUOUS
 10
-20.600000
 20
3.100000
 30
-69.300000
 11
15.518408
 21
-5.141595
 31
-69.490282
 12
13.254798
 22
-8.743150
 32
-69.573435
 13
13.254798
 23
-8.743150
 33
-69.573435
  0
3DFACE
  8
0
 62
  2
  6
CONTINUOUS
 10
-20.600000
 20
3.100000
 30
-69.300000
 11
13.254798
 21
-8.743150
 31
-69.573435
 12
10.246306
 22
-11.750841
 32
-69.642877
 13
10.246306
 23
-11.750841
 33
-69.642877
  0
3DFACE
  8
0
 62
  2
  6
CONTINUOUS
 10
-20.600000
 20
3.100000
 30
-69.300000
 11
10.246306
 21
-11.750841
 31
-69.642877
 12
6.643791
 22
-14.013848
 32
-69.695125
 13
6.643791
 23
-14.013848
 33
-69.695125
  0
3DFACE
  8
0
 62
  2
  6
CONTINUOUS
 10
-20.600000
 20
3.100000
 30
-69.300000
 11
6.643791
 21
-14.013848
 31
-69.695125
 12
2.627898
 22
-15.418695
 32
-69.727560
 13
2.627898
 23
-15.418695
 33
-69.727560
  0
3DFACE
  8
0
 62
  2
  6
CONTINUOUS
 10
-20.600000
 20
3.100000
 30
-69.300000
 11
2.627898
 21
-15.418695
 31
-69.727560
 12
-1.600000
 22
-15.894938
 32
-69.738556
 13
-1.600000
 23
-15.894938
 33
-69.738556
  0
3DFACE
  8
0
 62
  2
  6
CONTINUOUS
 10
-20.600000
 20
3.100000
 30
-69.300000
 11
-1.600000
 21
-15.894938
 31
-69.738556
 12
-5.827898
 22
-15.418695
 32
-69.727560
 13
-5.827898
 23
-15.418695
 33
-69.727560
  0
3DFACE
  8
0
 62
  2
  6
CONTINUOUS
 10
-20.600000
 20
3.100000
 30
-69.300000
 11
-5.827898
 21
-15.418695
 31
-69.727560
 12
-9.843791
 22
-14.013848
 32
-69.695125
 13
-9.843791
 23
-14.013848
 33
-69.695125
  0
3DFACE
  8
0
 62
  2
  6
CONTINUOUS
 10
-20.600000
 20
3.100000
 30
-69.300000
 11
-9.843791
 21
-14.013848
 31
-69.695125
 12
-13.446306
 22
-11.750841
 32
-69.642877
 13
-13.446306
 23
-11.750841
 33
-69.642877
  0
3DFACE
  8
0
 62
  2
  6
CONTINUOUS
 10
-20.600000
 20
3.100000
 30
-69.300000
 11
-13.446306
 21
-11.750841
 31
-69.642877
 12
-16.454798
 22
-8.743150
 32
-69.573435
 13
-16.454798
 23
-8.743150
 33
-69.573435
  0
3DFACE
  8
0
 62
  2
  6
CONTINUOUS
 10
-20.600000
 20
3.100000
 30
-69.300000
 11
-16.454798
 21
-8.743150
 31
-69.573435
 12
-18.718408
 22
-5.141595
 32
-69.490282
 13
-18.718408
 23
-5.141595
 33
-69.490282
  0
3DFACE
  8
0
 62
  2
  6
CONTINUOUS
 10
-20.600000
 20
3.100000
 30
-69.300000
 11
-18.718408
 21
-5.141595
 31
-69.490282
 12
-20.123630
 22
-1.126771
 32
-69.397588
 13
-20.123630
 23
-1.126771
 33
-69.397588
  0
ENDSEC
  0
EOF
