  0
SECTION
  2
HEADER
  0
ENDSEC
  0
SECTION
  2
TABLES
  0
TABLE
  2
LAYER
  70
    153
  0
LAYER
  2
0
 70
0
 62
15
  6
CONTINUOUS
  0
ENDTAB
  0
ENDSEC
  0
SECTION
  2
ENTITIES
  0
3DFACE
  8
0
 10
-5.791200
 20
-0.243840
 30
21.256311
 11
-5.646003
 21
1.044480
 31
21.286057
 12
-5.217691
 22
2.268198
 32
21.314308
 13
-5.217691
 23
2.268198
 33
21.314308
 62
0
  0
3DFACE
  8
0
 10
-5.791200
 20
-0.243840
 30
21.256311
 11
-5.217691
 21
2.268198
 31
21.314308
 12
-4.527742
 22
3.365952
 32
21.339653
 13
-4.527742
 23
3.365952
 33
21.339653
 62
0
  0
3DFACE
  8
0
 10
-5.791200
 20
-0.243840
 30
21.256311
 11
-4.527742
 21
3.365952
 31
21.339653
 12
-3.610754
 22
4.282697
 32
21.360821
 13
-3.610754
 23
4.282697
 33
21.360821
 62
0
  0
3DFACE
  8
0
 10
-5.791200
 20
-0.243840
 30
21.256311
 11
-3.610754
 21
4.282697
 31
21.360821
 12
-2.512707
 22
4.972460
 32
21.376747
 13
-2.512707
 23
4.972460
 33
21.376747
 62
0
  0
3DFACE
  8
0
 10
-5.791200
 20
-0.243840
 30
21.256311
 11
-2.512707
 21
4.972460
 31
21.376747
 12
-1.288663
 22
5.400659
 32
21.386631
 13
-1.288663
 23
5.400659
 33
21.386631
 62
0
  0
3DFACE
  8
0
 10
-5.791200
 20
-0.243840
 30
21.256311
 11
-1.288663
 21
5.400659
 31
21.386631
 12
0.000000
 22
5.545817
 32
21.389984
 13
0.000000
 23
5.545817
 33
21.389984
 62
0
  0
3DFACE
  8
0
 10
-5.791200
 20
-0.243840
 30
21.256311
 11
0.000000
 21
5.545817
 31
21.389984
 12
1.288664
 22
5.400659
 32
21.386631
 13
1.288664
 23
5.400659
 33
21.386631
 62
0
  0
3DFACE
  8
0
 10
-5.791200
 20
-0.243840
 30
21.256311
 11
1.288664
 21
5.400659
 31
21.386631
 12
2.512708
 22
4.972460
 32
21.376747
 13
2.512708
 23
4.972460
 33
21.376747
 62
0
  0
3DFACE
  8
0
 10
-5.791200
 20
-0.243840
 30
21.256311
 11
2.512708
 21
4.972460
 31
21.376747
 12
3.610754
 22
4.282697
 32
21.360821
 13
3.610754
 23
4.282697
 33
21.360821
 62
0
  0
3DFACE
  8
0
 10
-5.791200
 20
-0.243840
 30
21.256311
 11
3.610754
 21
4.282697
 31
21.360821
 12
4.527742
 22
3.365952
 32
21.339653
 13
4.527742
 23
3.365952
 33
21.339653
 62
0
  0
3DFACE
  8
0
 10
-5.791200
 20
-0.243840
 30
21.256311
 11
4.527742
 21
3.365952
 31
21.339653
 12
5.217691
 22
2.268198
 32
21.314308
 13
5.217691
 23
2.268198
 33
21.314308
 62
0
  0
3DFACE
  8
0
 10
-5.791200
 20
-0.243840
 30
21.256311
 11
5.217691
 21
2.268198
 31
21.314308
 12
5.646003
 22
1.044480
 32
21.286057
 13
5.646003
 23
1.044480
 33
21.286057
 62
0
  0
3DFACE
  8
0
 10
-5.791200
 20
-0.243840
 30
21.256311
 11
5.646003
 21
1.044480
 31
21.286057
 12
5.791200
 22
-0.243840
 32
21.256311
 13
5.791200
 23
-0.243840
 33
21.256311
 62
0
  0
3DFACE
  8
0
 10
-5.791200
 20
-0.243840
 30
21.256311
 11
5.791200
 21
-0.243840
 31
21.256311
 12
5.646003
 22
-1.532160
 32
21.226566
 13
5.646003
 23
-1.532160
 33
21.226566
 62
0
  0
3DFACE
  8
0
 10
-5.791200
 20
-0.243840
 30
21.256311
 11
5.646003
 21
-1.532160
 31
21.226566
 12
5.217691
 22
-2.755878
 32
21.198315
 13
5.217691
 23
-2.755878
 33
21.198315
 62
0
  0
3DFACE
  8
0
 10
-5.791200
 20
-0.243840
 30
21.256311
 11
5.217691
 21
-2.755878
 31
21.198315
 12
4.527742
 22
-3.853632
 32
21.172970
 13
4.527742
 23
-3.853632
 33
21.172970
 62
0
  0
3DFACE
  8
0
 10
-5.791200
 20
-0.243840
 30
21.256311
 11
4.527742
 21
-3.853632
 31
21.172970
 12
3.610754
 22
-4.770376
 32
21.151802
 13
3.610754
 23
-4.770376
 33
21.151802
 62
0
  0
3DFACE
  8
0
 10
-5.791200
 20
-0.243840
 30
21.256311
 11
3.610754
 21
-4.770376
 31
21.151802
 12
2.512708
 22
-5.460141
 32
21.135878
 13
2.512708
 23
-5.460141
 33
21.135878
 62
0
  0
3DFACE
  8
0
 10
-5.791200
 20
-0.243840
 30
21.256311
 11
2.512708
 21
-5.460141
 31
21.135878
 12
1.288664
 22
-5.888339
 32
21.125992
 13
1.288664
 23
-5.888339
 33
21.125992
 62
0
  0
3DFACE
  8
0
 10
-5.791200
 20
-0.243840
 30
21.256311
 11
1.288664
 21
-5.888339
 31
21.125992
 12
0.000000
 22
-6.033497
 32
21.122639
 13
0.000000
 23
-6.033497
 33
21.122639
 62
0
  0
3DFACE
  8
0
 10
-5.791200
 20
-0.243840
 30
21.256311
 11
0.000000
 21
-6.033497
 31
21.122639
 12
-1.288663
 22
-5.888339
 32
21.125992
 13
-1.288663
 23
-5.888339
 33
21.125992
 62
0
  0
3DFACE
  8
0
 10
-5.791200
 20
-0.243840
 30
21.256311
 11
-1.288663
 21
-5.888339
 31
21.125992
 12
-2.512707
 22
-5.460141
 32
21.135878
 13
-2.512707
 23
-5.460141
 33
21.135878
 62
0
  0
3DFACE
  8
0
 10
-5.791200
 20
-0.243840
 30
21.256311
 11
-2.512707
 21
-5.460141
 31
21.135878
 12
-3.610754
 22
-4.770376
 32
21.151802
 13
-3.610754
 23
-4.770376
 33
21.151802
 62
0
  0
3DFACE
  8
0
 10
-5.791200
 20
-0.243840
 30
21.256311
 11
-3.610754
 21
-4.770376
 31
21.151802
 12
-4.527742
 22
-3.853632
 32
21.172970
 13
-4.527742
 23
-3.853632
 33
21.172970
 62
0
  0
3DFACE
  8
0
 10
-5.791200
 20
-0.243840
 30
21.256311
 11
-4.527742
 21
-3.853632
 31
21.172970
 12
-5.217691
 22
-2.755878
 32
21.198315
 13
-5.217691
 23
-2.755878
 33
21.198315
 62
0
  0
3DFACE
  8
0
 10
-5.791200
 20
-0.243840
 30
21.256311
 11
-5.217691
 21
-2.755878
 31
21.198315
 12
-5.646003
 22
-1.532160
 32
21.226566
 13
-5.646003
 23
-1.532160
 33
21.226566
 62
0
  0
3DFACE
  8
0
 10
-5.791200
 20
0.243840
 30
0.133671
 11
-5.646003
 21
1.532160
 31
0.163415
 12
-5.646003
 22
1.044480
 32
21.286057
 13
-5.791200
 23
-0.243840
 33
21.256311
 62
0
  0
3DFACE
  8
0
 10
-5.646003
 20
1.532160
 30
0.163415
 11
-5.217691
 21
2.755878
 31
0.191669
 12
-5.217691
 22
2.268198
 32
21.314308
 13
-5.646003
 23
1.044480
 33
21.286057
 62
0
  0
3DFACE
  8
0
 10
-5.217691
 20
2.755878
 30
0.191669
 11
-4.527742
 21
3.853632
 31
0.217014
 12
-4.527742
 22
3.365952
 32
21.339653
 13
-5.217691
 23
2.268198
 33
21.314308
 62
0
  0
3DFACE
  8
0
 10
-4.527742
 20
3.853632
 30
0.217014
 11
-3.610754
 21
4.770377
 31
0.238180
 12
-3.610754
 22
4.282697
 32
21.360821
 13
-4.527742
 23
3.365952
 33
21.339653
 62
0
  0
3DFACE
  8
0
 10
-3.610754
 20
4.770377
 30
0.238180
 11
-2.512707
 21
5.460141
 31
0.254105
 12
-2.512707
 22
4.972460
 32
21.376747
 13
-3.610754
 23
4.282697
 33
21.360821
 62
1
  0
3DFACE
  8
0
 10
-2.512707
 20
5.460141
 30
0.254105
 11
-1.288663
 21
5.888339
 31
0.263993
 12
-1.288663
 22
5.400659
 32
21.386631
 13
-2.512707
 23
4.972460
 33
21.376747
 62
1
  0
3DFACE
  8
0
 10
-1.288663
 20
5.888339
 30
0.263993
 11
0.000000
 21
6.033497
 31
0.267344
 12
0.000000
 22
5.545817
 32
21.389984
 13
-1.288663
 23
5.400659
 33
21.386631
 62
1
  0
3DFACE
  8
0
 10
0.000000
 20
6.033497
 30
0.267344
 11
1.288664
 21
5.888339
 31
0.263993
 12
1.288664
 22
5.400659
 32
21.386631
 13
0.000000
 23
5.545817
 33
21.389984
 62
1
  0
3DFACE
  8
0
 10
1.288664
 20
5.888339
 30
0.263993
 11
2.512708
 21
5.460141
 31
0.254105
 12
2.512708
 22
4.972460
 32
21.376747
 13
1.288664
 23
5.400659
 33
21.386631
 62
2
  0
3DFACE
  8
0
 10
2.512708
 20
5.460141
 30
0.254105
 11
3.610754
 21
4.770377
 31
0.238180
 12
3.610754
 22
4.282697
 32
21.360821
 13
2.512708
 23
4.972460
 33
21.376747
 62
2
  0
3DFACE
  8
0
 10
3.610754
 20
4.770377
 30
0.238180
 11
4.527742
 21
3.853632
 31
0.217014
 12
4.527742
 22
3.365952
 32
21.339653
 13
3.610754
 23
4.282697
 33
21.360821
 62
2
  0
3DFACE
  8
0
 10
4.527742
 20
3.853632
 30
0.217014
 11
5.217691
 21
2.755878
 31
0.191669
 12
5.217691
 22
2.268198
 32
21.314308
 13
4.527742
 23
3.365952
 33
21.339653
 62
2
  0
3DFACE
  8
0
 10
5.217691
 20
2.755878
 30
0.191669
 11
5.646003
 21
1.532160
 31
0.163415
 12
5.646003
 22
1.044480
 32
21.286057
 13
5.217691
 23
2.268198
 33
21.314308
 62
2
  0
3DFACE
  8
0
 10
5.646003
 20
1.532160
 30
0.163415
 11
5.791200
 21
0.243840
 31
0.133671
 12
5.791200
 22
-0.243840
 32
21.256311
 13
5.646003
 23
1.044480
 33
21.286057
 62
0
  0
3DFACE
  8
0
 10
5.791200
 20
0.243840
 30
0.133671
 11
5.646003
 21
-1.044480
 31
0.103926
 12
5.646003
 22
-1.532160
 32
21.226566
 13
5.791200
 23
-0.243840
 33
21.256311
 62
0
  0
3DFACE
  8
0
 10
5.646003
 20
-1.044480
 30
0.103926
 11
5.217691
 21
-2.268198
 31
0.075674
 12
5.217691
 22
-2.755878
 32
21.198315
 13
5.646003
 23
-1.532160
 33
21.226566
 62
0
  0
3DFACE
  8
0
 10
5.217691
 20
-2.268198
 30
0.075674
 11
4.527742
 21
-3.365952
 31
0.050329
 12
4.527742
 22
-3.853632
 32
21.172970
 13
5.217691
 23
-2.755878
 33
21.198315
 62
0
  0
3DFACE
  8
0
 10
4.527742
 20
-3.365952
 30
0.050329
 11
3.610754
 21
-4.282697
 31
0.029163
 12
3.610754
 22
-4.770376
 32
21.151802
 13
4.527742
 23
-3.853632
 33
21.172970
 62
0
  0
3DFACE
  8
0
 10
3.610754
 20
-4.282697
 30
0.029163
 11
2.512708
 21
-4.972461
 31
0.013238
 12
2.512708
 22
-5.460141
 32
21.135878
 13
3.610754
 23
-4.770376
 33
21.151802
 62
0
  0
3DFACE
  8
0
 10
2.512708
 20
-4.972461
 30
0.013238
 11
1.288664
 21
-5.400659
 31
0.003350
 12
1.288664
 22
-5.888339
 32
21.125992
 13
2.512708
 23
-5.460141
 33
21.135878
 62
0
  0
3DFACE
  8
0
 10
1.288664
 20
-5.400659
 30
0.003350
 11
0.000000
 21
-5.545817
 31
0.000000
 12
0.000000
 22
-6.033497
 32
21.122639
 13
1.288664
 23
-5.888339
 33
21.125992
 62
0
  0
3DFACE
  8
0
 10
0.000000
 20
-5.545817
 30
0.000000
 11
-1.288663
 21
-5.400659
 31
0.003350
 12
-1.288663
 22
-5.888339
 32
21.125992
 13
0.000000
 23
-6.033497
 33
21.122639
 62
0
  0
3DFACE
  8
0
 10
-1.288663
 20
-5.400659
 30
0.003350
 11
-2.512707
 21
-4.972461
 31
0.013238
 12
-2.512707
 22
-5.460141
 32
21.135878
 13
-1.288663
 23
-5.888339
 33
21.125992
 62
0
  0
3DFACE
  8
0
 10
-2.512707
 20
-4.972461
 30
0.013238
 11
-3.610754
 21
-4.282697
 31
0.029163
 12
-3.610754
 22
-4.770376
 32
21.151802
 13
-2.512707
 23
-5.460141
 33
21.135878
 62
0
  0
3DFACE
  8
0
 10
-3.610754
 20
-4.282697
 30
0.029163
 11
-4.527742
 21
-3.365952
 31
0.050329
 12
-4.527742
 22
-3.853632
 32
21.172970
 13
-3.610754
 23
-4.770376
 33
21.151802
 62
0
  0
3DFACE
  8
0
 10
-4.527742
 20
-3.365952
 30
0.050329
 11
-5.217691
 21
-2.268198
 31
0.075674
 12
-5.217691
 22
-2.755878
 32
21.198315
 13
-4.527742
 23
-3.853632
 33
21.172970
 62
0
  0
3DFACE
  8
0
 10
-5.217691
 20
-2.268198
 30
0.075674
 11
-5.646003
 21
-1.044480
 31
0.103926
 12
-5.646003
 22
-1.532160
 32
21.226566
 13
-5.217691
 23
-2.755878
 33
21.198315
 62
0
  0
3DFACE
  8
0
 10
-5.646003
 20
-1.044480
 30
0.103926
 11
-5.791200
 21
0.243840
 31
0.133671
 12
-5.791200
 22
-0.243840
 32
21.256311
 13
-5.646003
 23
-1.532160
 33
21.226566
 62
0
  0
3DFACE
  8
0
 10
-5.791200
 20
0.243840
 30
0.133671
 11
-5.646003
 21
1.532160
 31
0.163415
 12
-5.217691
 22
2.755878
 32
0.191669
 13
-5.217691
 23
2.755878
 33
0.191669
 62
0
  0
3DFACE
  8
0
 10
-5.791200
 20
0.243840
 30
0.133671
 11
-5.217691
 21
2.755878
 31
0.191669
 12
-4.527742
 22
3.853632
 32
0.217014
 13
-4.527742
 23
3.853632
 33
0.217014
 62
0
  0
3DFACE
  8
0
 10
-5.791200
 20
0.243840
 30
0.133671
 11
-4.527742
 21
3.853632
 31
0.217014
 12
-3.610754
 22
4.770377
 32
0.238180
 13
-3.610754
 23
4.770377
 33
0.238180
 62
0
  0
3DFACE
  8
0
 10
-5.791200
 20
0.243840
 30
0.133671
 11
-3.610754
 21
4.770377
 31
0.238180
 12
-2.512707
 22
5.460141
 32
0.254105
 13
-2.512707
 23
5.460141
 33
0.254105
 62
0
  0
3DFACE
  8
0
 10
-5.791200
 20
0.243840
 30
0.133671
 11
-2.512707
 21
5.460141
 31
0.254105
 12
-1.288663
 22
5.888339
 32
0.263993
 13
-1.288663
 23
5.888339
 33
0.263993
 62
0
  0
3DFACE
  8
0
 10
-5.791200
 20
0.243840
 30
0.133671
 11
-1.288663
 21
5.888339
 31
0.263993
 12
0.000000
 22
6.033497
 32
0.267344
 13
0.000000
 23
6.033497
 33
0.267344
 62
0
  0
3DFACE
  8
0
 10
-5.791200
 20
0.243840
 30
0.133671
 11
0.000000
 21
6.033497
 31
0.267344
 12
1.288664
 22
5.888339
 32
0.263993
 13
1.288664
 23
5.888339
 33
0.263993
 62
0
  0
3DFACE
  8
0
 10
-5.791200
 20
0.243840
 30
0.133671
 11
1.288664
 21
5.888339
 31
0.263993
 12
2.512708
 22
5.460141
 32
0.254105
 13
2.512708
 23
5.460141
 33
0.254105
 62
0
  0
3DFACE
  8
0
 10
-5.791200
 20
0.243840
 30
0.133671
 11
2.512708
 21
5.460141
 31
0.254105
 12
3.610754
 22
4.770377
 32
0.238180
 13
3.610754
 23
4.770377
 33
0.238180
 62
0
  0
3DFACE
  8
0
 10
-5.791200
 20
0.243840
 30
0.133671
 11
3.610754
 21
4.770377
 31
0.238180
 12
4.527742
 22
3.853632
 32
0.217014
 13
4.527742
 23
3.853632
 33
0.217014
 62
0
  0
3DFACE
  8
0
 10
-5.791200
 20
0.243840
 30
0.133671
 11
4.527742
 21
3.853632
 31
0.217014
 12
5.217691
 22
2.755878
 32
0.191669
 13
5.217691
 23
2.755878
 33
0.191669
 62
0
  0
3DFACE
  8
0
 10
-5.791200
 20
0.243840
 30
0.133671
 11
5.217691
 21
2.755878
 31
0.191669
 12
5.646003
 22
1.532160
 32
0.163415
 13
5.646003
 23
1.532160
 33
0.163415
 62
0
  0
3DFACE
  8
0
 10
-5.791200
 20
0.243840
 30
0.133671
 11
5.646003
 21
1.532160
 31
0.163415
 12
5.791200
 22
0.243840
 32
0.133671
 13
5.791200
 23
0.243840
 33
0.133671
 62
0
  0
3DFACE
  8
0
 10
-5.791200
 20
0.243840
 30
0.133671
 11
5.791200
 21
0.243840
 31
0.133671
 12
5.646003
 22
-1.044480
 32
0.103926
 13
5.646003
 23
-1.044480
 33
0.103926
 62
0
  0
3DFACE
  8
0
 10
-5.791200
 20
0.243840
 30
0.133671
 11
5.646003
 21
-1.044480
 31
0.103926
 12
5.217691
 22
-2.268198
 32
0.075674
 13
5.217691
 23
-2.268198
 33
0.075674
 62
0
  0
3DFACE
  8
0
 10
-5.791200
 20
0.243840
 30
0.133671
 11
5.217691
 21
-2.268198
 31
0.075674
 12
4.527742
 22
-3.365952
 32
0.050329
 13
4.527742
 23
-3.365952
 33
0.050329
 62
0
  0
3DFACE
  8
0
 10
-5.791200
 20
0.243840
 30
0.133671
 11
4.527742
 21
-3.365952
 31
0.050329
 12
3.610754
 22
-4.282697
 32
0.029163
 13
3.610754
 23
-4.282697
 33
0.029163
 62
0
  0
3DFACE
  8
0
 10
-5.791200
 20
0.243840
 30
0.133671
 11
3.610754
 21
-4.282697
 31
0.029163
 12
2.512708
 22
-4.972461
 32
0.013238
 13
2.512708
 23
-4.972461
 33
0.013238
 62
0
  0
3DFACE
  8
0
 10
-5.791200
 20
0.243840
 30
0.133671
 11
2.512708
 21
-4.972461
 31
0.013238
 12
1.288664
 22
-5.400659
 32
0.003350
 13
1.288664
 23
-5.400659
 33
0.003350
 62
0
  0
3DFACE
  8
0
 10
-5.791200
 20
0.243840
 30
0.133671
 11
1.288664
 21
-5.400659
 31
0.003350
 12
0.000000
 22
-5.545817
 32
0.000000
 13
0.000000
 23
-5.545817
 33
0.000000
 62
0
  0
3DFACE
  8
0
 10
-5.791200
 20
0.243840
 30
0.133671
 11
0.000000
 21
-5.545817
 31
0.000000
 12
-1.288663
 22
-5.400659
 32
0.003350
 13
-1.288663
 23
-5.400659
 33
0.003350
 62
0
  0
3DFACE
  8
0
 10
-5.791200
 20
0.243840
 30
0.133671
 11
-1.288663
 21
-5.400659
 31
0.003350
 12
-2.512707
 22
-4.972461
 32
0.013238
 13
-2.512707
 23
-4.972461
 33
0.013238
 62
0
  0
3DFACE
  8
0
 10
-5.791200
 20
0.243840
 30
0.133671
 11
-2.512707
 21
-4.972461
 31
0.013238
 12
-3.610754
 22
-4.282697
 32
0.029163
 13
-3.610754
 23
-4.282697
 33
0.029163
 62
0
  0
3DFACE
  8
0
 10
-5.791200
 20
0.243840
 30
0.133671
 11
-3.610754
 21
-4.282697
 31
0.029163
 12
-4.527742
 22
-3.365952
 32
0.050329
 13
-4.527742
 23
-3.365952
 33
0.050329
 62
0
  0
3DFACE
  8
0
 10
-5.791200
 20
0.243840
 30
0.133671
 11
-4.527742
 21
-3.365952
 31
0.050329
 12
-5.217691
 22
-2.268198
 32
0.075674
 13
-5.217691
 23
-2.268198
 33
0.075674
 62
0
  0
3DFACE
  8
0
 10
-5.791200
 20
0.243840
 30
0.133671
 11
-5.217691
 21
-2.268198
 31
0.075674
 12
-5.646003
 22
-1.044480
 32
0.103926
 13
-5.646003
 23
-1.044480
 33
0.103926
 62
0
 0
ENDSEC
 0
EOF
