  0
SECTION
  2
HEADER
  0
ENDSEC
  0
SECTION
  2
TABLES
  0
TABLE
  2
LAYER
  70
    153
  0
LAYER
  2
0
 70
0
 62
15
  6
CONTINUOUS
  0
ENDTAB
  0
ENDSEC
  0
SECTION
  2
ENTITIES
  0
3DFACE
  8
0
 10
0.762000
 20
-3.790279
 30
0.000489
 11
0.944880
 21
-2.571079
 31
0.000489
 12
1.524000
 22
-2.266279
 32
0.000489
 13
1.524000
 23
-2.266279
 33
0.000489
 62
4
  0
3DFACE
  8
0
 10
0.000031
 20
-5.353721
 30
0.000704
 11
0.000000
 21
-3.942679
 31
0.610089
 12
0.762000
 22
-3.790279
 32
0.000489
 13
0.762000
 23
-3.790279
 33
0.000489
 62
4
  0
3DFACE
  8
0
 10
0.000000
 20
-3.028280
 30
1.524489
 11
0.000011
 21
3.729320
 31
0.000000
 12
0.000000
 22
2.000921
 32
0.610089
 13
0.000000
 23
2.000921
 33
0.610089
 62
0
  0
3DFACE
  8
0
 10
1.371600
 20
1.238921
 30
0.610089
 11
0.000000
 21
-3.028280
 31
1.524489
 12
0.000000
 22
2.000921
 32
0.610089
 13
0.000000
 23
2.000921
 33
0.610089
 62
4
  0
3DFACE
  8
0
 10
0.000011
 20
3.729320
 30
0.000000
 11
1.467700
 21
2.235796
 31
0.010004
 12
0.000000
 22
2.000921
 32
0.610089
 13
0.000000
 23
2.000921
 33
0.610089
 62
4
  0
3DFACE
  8
0
 10
0.000000
 20
-3.028280
 30
1.524489
 11
1.371600
 21
1.238921
 31
0.610089
 12
0.762000
 22
-3.790279
 32
0.000489
 13
0.762000
 23
-3.790279
 33
0.000489
 62
4
  0
3DFACE
  8
0
 10
0.762000
 20
-3.790279
 30
0.000489
 11
0.000000
 21
-3.942679
 31
0.610089
 12
0.000000
 22
-3.028280
 32
1.524489
 13
0.000000
 23
-3.028280
 33
1.524489
 62
4
  0
3DFACE
  8
0
 10
0.000031
 20
-5.353721
 30
0.000704
 11
3.631692
 21
3.455000
 31
0.018325
 12
1.589602
 22
1.595716
 32
0.012271
 13
1.589602
 23
1.595716
 33
0.012271
 62
4
  0
3DFACE
  8
0
 10
0.000000
 20
-3.028280
 30
1.524489
 11
0.000000
 21
2.000921
 31
0.610089
 12
0.000011
 22
3.729320
 32
0.000000
 13
0.000011
 23
3.729320
 33
0.000000
 62
0
  0
3DFACE
  8
0
 10
1.219200
 20
5.353721
 30
1.676889
 11
0.000011
 21
3.729320
 31
0.000000
 12
1.219200
 22
4.439321
 32
1.676889
 13
1.219200
 23
4.439321
 33
1.676889
 62
3
  0
3DFACE
  8
0
 10
1.524000
 20
-2.266279
 30
0.000489
 11
3.631692
 21
3.455000
 31
0.018325
 12
3.936492
 22
3.150200
 32
0.018417
 13
3.936492
 23
3.150200
 33
0.018417
 62
4
  0
3DFACE
  8
0
 10
1.828800
 20
-0.437479
 30
0.000489
 11
1.371600
 21
1.238921
 31
0.610089
 12
1.589602
 22
1.595716
 32
0.012271
 13
1.589602
 23
1.595716
 33
0.012271
 62
3
  0
3DFACE
  8
0
 10
1.524000
 20
-2.266279
 30
0.000489
 11
1.219200
 21
-1.809079
 31
0.610089
 12
1.828800
 22
-0.437479
 32
0.000489
 13
1.828800
 23
-0.437479
 33
0.000489
 62
4
  0
3DFACE
  8
0
 10
1.371600
 20
-0.437479
 30
0.610089
 11
0.762000
 21
-0.589879
 31
0.914889
 12
1.371600
 22
1.238921
 32
0.610089
 13
1.371600
 23
1.238921
 33
0.610089
 62
4
  0
3DFACE
  8
0
 10
0.762000
 20
-2.266279
 30
0.610089
 11
0.762000
 21
-0.589879
 31
0.914889
 12
1.219200
 22
-1.809079
 32
0.610089
 13
1.219200
 23
-1.809079
 33
0.610089
 62
4
  0
3DFACE
  8
0
 10
0.944880
 20
-2.571079
 30
0.000489
 11
0.762000
 21
-2.266279
 31
0.610089
 12
1.524000
 22
-2.266279
 32
0.000489
 13
1.524000
 23
-2.266279
 33
0.000489
 62
4
  0
3DFACE
  8
0
 10
1.371600
 20
1.238921
 30
0.610089
 11
1.467700
 21
2.235796
 31
0.010004
 12
1.589602
 22
1.595716
 32
0.012271
 13
1.589602
 23
1.595716
 33
0.012271
 62
4
  0
3DFACE
  8
0
 10
0.000031
 20
-5.353721
 30
0.000704
 11
3.631692
 21
3.455000
 31
0.018325
 12
1.589602
 22
1.595716
 32
0.012271
 13
1.589602
 23
1.595716
 33
0.012271
 62
4
  0
3DFACE
  8
0
 10
1.219200
 20
5.353721
 30
1.676889
 11
1.219200
 21
4.439321
 31
1.676889
 12
0.000011
 22
3.729320
 32
0.000000
 13
0.000011
 23
3.729320
 33
0.000000
 62
4
  0
3DFACE
  8
0
 10
-0.762000
 20
-3.790279
 30
0.000489
 11
-1.524000
 21
-2.266279
 31
0.000489
 12
-0.944880
 22
-2.571079
 32
0.000489
 13
-0.944880
 23
-2.571079
 33
0.000489
 62
4
  0
3DFACE
  8
0
 10
0.000031
 20
-5.353721
 30
0.000704
 11
-0.762000
 21
-3.790279
 31
0.000489
 12
0.000000
 22
-3.942679
 32
0.610089
 13
0.000000
 23
-3.942679
 33
0.610089
 62
4
  0
3DFACE
  8
0
 10
0.000000
 20
-3.028280
 30
1.524489
 11
0.000000
 21
2.000921
 31
0.610089
 12
0.000011
 22
3.729320
 32
0.000000
 13
0.000011
 23
3.729320
 33
0.000000
 62
0
  0
3DFACE
  8
0
 10
-1.371600
 20
1.238921
 30
0.610089
 11
0.000000
 21
2.000921
 31
0.610089
 12
0.000000
 22
-3.028280
 32
1.524489
 13
0.000000
 23
-3.028280
 33
1.524489
 62
4
  0
3DFACE
  8
0
 10
0.000011
 20
3.729320
 30
0.000000
 11
0.000000
 21
2.000921
 31
0.610089
 12
-1.467700
 22
2.235796
 32
0.010004
 13
-1.467700
 23
2.235796
 33
0.010004
 62
3
  0
3DFACE
  8
0
 10
0.000000
 20
-3.028280
 30
1.524489
 11
-0.762000
 21
-3.790279
 31
0.000489
 12
-1.371600
 22
1.238921
 32
0.610089
 13
-1.371600
 23
1.238921
 33
0.610089
 62
4
  0
3DFACE
  8
0
 10
-0.762000
 20
-3.790279
 30
0.000489
 11
0.000000
 21
-3.028280
 31
1.524489
 12
0.000000
 22
-3.942679
 32
0.610089
 13
0.000000
 23
-3.942679
 33
0.610089
 62
4
  0
3DFACE
  8
0
 10
0.000031
 20
-5.353721
 30
0.000704
 11
-1.589602
 21
1.595716
 31
0.012271
 12
-3.936492
 22
3.150200
 32
0.018417
 13
-3.936492
 23
3.150200
 33
0.018417
 62
4
  0
3DFACE
  8
0
 10
0.000000
 20
-3.028280
 30
1.524489
 11
0.000011
 21
3.729320
 31
0.000000
 12
0.000000
 22
2.000921
 32
0.610089
 13
0.000000
 23
2.000921
 33
0.610089
 62
0
  0
3DFACE
  8
0
 10
-1.219200
 20
5.353721
 30
1.676889
 11
-1.219200
 21
4.439321
 31
1.676889
 12
0.000011
 22
3.729320
 32
0.000000
 13
0.000011
 23
3.729320
 33
0.000000
 62
3
  0
3DFACE
  8
0
 10
-1.524000
 20
-2.266279
 30
0.000489
 11
-3.631692
 21
3.455000
 31
0.018325
 12
-1.828800
 22
-0.437479
 32
0.000489
 13
-1.828800
 23
-0.437479
 33
0.000489
 62
4
  0
3DFACE
  8
0
 10
-1.828800
 20
-0.437479
 30
0.000489
 11
-1.371600
 21
1.238921
 31
0.610089
 12
-1.371600
 22
-0.437479
 32
0.610089
 13
-1.371600
 23
-0.437479
 33
0.610089
 62
4
  0
3DFACE
  8
0
 10
-1.524000
 20
-2.266279
 30
0.000489
 11
-1.828800
 21
-0.437479
 31
0.000489
 12
-1.219200
 22
-1.809079
 32
0.610089
 13
-1.219200
 23
-1.809079
 33
0.610089
 62
4
  0
3DFACE
  8
0
 10
-1.371600
 20
-0.437479
 30
0.610089
 11
-1.371600
 21
1.238921
 31
0.610089
 12
-0.762000
 22
-0.589879
 32
0.914889
 13
-0.762000
 23
-0.589879
 33
0.914889
 62
4
  0
3DFACE
  8
0
 10
-0.762000
 20
-2.266279
 30
0.610089
 11
-1.219200
 21
-1.809079
 31
0.610089
 12
-0.762000
 22
-0.589879
 32
0.914889
 13
-0.762000
 23
-0.589879
 33
0.914889
 62
4
  0
3DFACE
  8
0
 10
-0.944880
 20
-2.571079
 30
0.000489
 11
-1.524000
 21
-2.266279
 31
0.000489
 12
-0.762000
 22
-2.266279
 32
0.610089
 13
-0.762000
 23
-2.266279
 33
0.610089
 62
4
  0
3DFACE
  8
0
 10
-1.371600
 20
1.238921
 30
0.610089
 11
-1.589602
 21
1.595716
 31
0.012271
 12
-1.467700
 22
2.235796
 32
0.010004
 13
-1.467700
 23
2.235796
 33
0.010004
 62
0
  0
3DFACE
  8
0
 10
0.000031
 20
-5.353721
 30
0.000704
 11
-1.589602
 21
1.595716
 31
0.012271
 12
-3.936492
 22
3.150200
 32
0.018417
 13
-3.936492
 23
3.150200
 33
0.018417
 62
4
  0
3DFACE
  8
0
 10
-1.219200
 20
5.353721
 30
1.676889
 11
0.000011
 21
3.729320
 31
0.000000
 12
-1.219200
 22
4.439321
 32
1.676889
 13
-1.219200
 23
4.439321
 33
1.676889
 62
1
  0
3DFACE
  8
0
 10
0.000000
 20
2.000921
 30
0.610089
 11
1.467700
 21
2.235796
 31
0.010004
 12
1.371600
 22
1.238921
 32
0.610089
 13
1.371600
 23
1.238921
 33
0.610089
 62
3
  0
3DFACE
  8
0
 10
0.762000
 20
-3.790279
 30
0.000489
 11
1.371600
 21
1.238921
 31
0.610089
 12
1.589602
 22
1.595716
 32
0.012271
 13
1.589602
 23
1.595716
 33
0.012271
 62
3
  0
3DFACE
  8
0
 10
3.936492
 20
3.150200
 30
0.018417
 11
0.000031
 21
-5.353721
 31
0.000704
 12
3.936492
 22
2.723480
 32
0.018509
 13
3.936492
 23
2.723480
 33
0.018509
 62
4
  0
3DFACE
  8
0
 10
0.000011
 20
3.729320
 30
0.000000
 11
1.589602
 21
1.595716
 31
0.012271
 12
1.467700
 22
2.235796
 32
0.010004
 13
1.467700
 23
2.235796
 33
0.010004
 62
4
  0
3DFACE
  8
0
 10
3.631692
 20
3.455000
 30
0.018325
 11
0.000031
 21
-5.353721
 31
0.000704
 12
3.936492
 22
3.150200
 32
0.018417
 13
3.936492
 23
3.150200
 33
0.018417
 62
3
  0
3DFACE
  8
0
 10
0.000031
 20
-5.353721
 30
0.000704
 11
1.589602
 21
1.595716
 31
0.012271
 12
0.000011
 22
3.729320
 32
0.000000
 13
0.000011
 23
3.729320
 33
0.000000
 62
4
  0
3DFACE
  8
0
 10
1.219200
 20
4.439321
 30
1.676889
 11
0.000011
 21
3.729320
 31
0.000000
 12
0.304800
 22
2.427640
 32
0.396729
 13
0.304800
 23
2.427640
 33
0.396729
 62
2
  0
3DFACE
  8
0
 10
3.631692
 20
3.455000
 30
0.018325
 11
1.828800
 21
-0.437479
 31
0.000489
 12
1.589602
 22
1.595716
 32
0.012271
 13
1.589602
 23
1.595716
 33
0.012271
 62
4
  0
3DFACE
  8
0
 10
1.524000
 20
-2.266279
 30
0.000489
 11
3.936492
 21
3.150200
 31
0.018417
 12
3.936492
 22
2.723480
 32
0.018509
 13
3.936492
 23
2.723480
 33
0.018509
 62
2
  0
3DFACE
  8
0
 10
3.631692
 20
3.455000
 30
0.018325
 11
1.524000
 21
-2.266279
 31
0.000489
 12
1.828800
 22
-0.437479
 32
0.000489
 13
1.828800
 23
-0.437479
 33
0.000489
 62
4
  0
3DFACE
  8
0
 10
1.371600
 20
1.238921
 30
0.610089
 11
1.828800
 21
-0.437479
 31
0.000489
 12
1.371600
 22
-0.437479
 32
0.610089
 13
1.371600
 23
-0.437479
 33
0.610089
 62
3
  0
3DFACE
  8
0
 10
1.828800
 20
-0.437479
 30
0.000489
 11
1.219200
 21
-1.809079
 31
0.610089
 12
1.371600
 22
-0.437479
 32
0.610089
 13
1.371600
 23
-0.437479
 33
0.610089
 62
3
  0
3DFACE
  8
0
 10
1.219200
 20
-1.809079
 30
0.610089
 11
0.762000
 21
-0.589879
 31
0.914889
 12
1.371600
 22
-0.437479
 32
0.610089
 13
1.371600
 23
-0.437479
 33
0.610089
 62
3
  0
3DFACE
  8
0
 10
1.524000
 20
-2.266279
 30
0.000489
 11
0.762000
 21
-2.266279
 31
0.610089
 12
1.219200
 22
-1.809079
 32
0.610089
 13
1.219200
 23
-1.809079
 33
0.610089
 62
4
  0
3DFACE
  8
0
 10
3.936492
 20
3.150200
 30
0.018417
 11
0.000031
 21
-5.353721
 31
0.000704
 12
3.936492
 22
2.723480
 32
0.018509
 13
3.936492
 23
2.723480
 33
0.018509
 62
3
  0
3DFACE
  8
0
 10
0.000011
 20
3.729320
 30
0.000000
 11
1.589602
 21
1.595716
 31
0.012271
 12
1.467700
 22
2.235796
 32
0.010004
 13
1.467700
 23
2.235796
 33
0.010004
 62
4
  0
3DFACE
  8
0
 10
3.631692
 20
3.455000
 30
0.018325
 11
0.000031
 21
-5.353721
 31
0.000704
 12
3.936492
 22
3.150200
 32
0.018417
 13
3.936492
 23
3.150200
 33
0.018417
 62
4
  0
3DFACE
  8
0
 10
0.000031
 20
-5.353721
 30
0.000704
 11
1.589602
 21
1.595716
 31
0.012271
 12
0.000011
 22
3.729320
 32
0.000000
 13
0.000011
 23
3.729320
 33
0.000000
 62
4
  0
3DFACE
  8
0
 10
0.000011
 20
3.729320
 30
0.000000
 11
1.219200
 21
4.439321
 31
1.676889
 12
0.304800
 22
2.427640
 32
0.396729
 13
0.304800
 23
2.427640
 33
0.396729
 62
3
  0
3DFACE
  8
0
 10
-1.467700
 20
2.235796
 30
0.010004
 11
0.000000
 21
2.000921
 31
0.610089
 12
-1.371600
 22
1.238921
 32
0.610089
 13
-1.371600
 23
1.238921
 33
0.610089
 62
4
  0
3DFACE
  8
0
 10
-1.371600
 20
1.238921
 30
0.610089
 11
-0.762000
 21
-3.790279
 31
0.000489
 12
-1.589602
 22
1.595716
 32
0.012271
 13
-1.589602
 23
1.595716
 33
0.012271
 62
4
  0
3DFACE
  8
0
 10
-1.467700
 20
2.235796
 30
0.010004
 11
0.000031
 21
-5.353721
 31
0.000704
 12
0.000011
 22
3.729320
 32
0.000000
 13
0.000011
 23
3.729320
 33
0.000000
 62
4
  0
3DFACE
  8
0
 10
-3.936492
 20
3.150200
 30
0.018417
 11
-1.589602
 21
1.595716
 31
0.012271
 12
-3.631692
 22
3.455000
 32
0.018325
 13
-3.631692
 23
3.455000
 33
0.018325
 62
3
  0
3DFACE
  8
0
 10
-1.589602
 20
1.595716
 30
0.012271
 11
0.000031
 21
-5.353721
 31
0.000704
 12
-1.467700
 22
2.235796
 32
0.010004
 13
-1.467700
 23
2.235796
 33
0.010004
 62
4
  0
3DFACE
  8
0
 10
0.000031
 20
-5.353721
 30
0.000704
 11
-3.936492
 21
3.150200
 31
0.018417
 12
-3.936492
 22
2.723480
 32
0.018509
 13
-3.936492
 23
2.723480
 33
0.018509
 62
4
  0
3DFACE
  8
0
 10
0.000011
 20
3.729320
 30
0.000000
 11
-1.219200
 21
4.439321
 31
1.676889
 12
-0.304800
 22
2.427640
 32
0.396729
 13
-0.304800
 23
2.427640
 33
0.396729
 62
4
  0
3DFACE
  8
0
 10
-3.936492
 20
3.150200
 30
0.018417
 11
-1.524000
 21
-2.266279
 31
0.000489
 12
-3.936492
 22
2.723480
 32
0.018509
 13
-3.936492
 23
2.723480
 33
0.018509
 62
4
  0
3DFACE
  8
0
 10
-1.828800
 20
-0.437479
 30
0.000489
 11
-3.631692
 21
3.455000
 31
0.018325
 12
-1.589602
 22
1.595716
 32
0.012271
 13
-1.589602
 23
1.595716
 33
0.012271
 62
4
  0
3DFACE
  8
0
 10
-3.631692
 20
3.455000
 30
0.018325
 11
-1.524000
 21
-2.266279
 31
0.000489
 12
-3.936492
 22
3.150200
 32
0.018417
 13
-3.936492
 23
3.150200
 33
0.018417
 62
4
  0
3DFACE
  8
0
 10
-1.371600
 20
1.238921
 30
0.610089
 11
-1.828800
 21
-0.437479
 31
0.000489
 12
-1.589602
 22
1.595716
 32
0.012271
 13
-1.589602
 23
1.595716
 33
0.012271
 62
4
  0
3DFACE
  8
0
 10
-1.219200
 20
-1.809079
 30
0.610089
 11
-1.828800
 21
-0.437479
 31
0.000489
 12
-1.371600
 22
-0.437479
 32
0.610089
 13
-1.371600
 23
-0.437479
 33
0.610089
 62
4
  0
3DFACE
  8
0
 10
-0.762000
 20
-0.589879
 30
0.914889
 11
-1.219200
 21
-1.809079
 31
0.610089
 12
-1.371600
 22
-0.437479
 32
0.610089
 13
-1.371600
 23
-0.437479
 33
0.610089
 62
4
  0
3DFACE
  8
0
 10
-0.762000
 20
-2.266279
 30
0.610089
 11
-1.524000
 21
-2.266279
 31
0.000489
 12
-1.219200
 22
-1.809079
 32
0.610089
 13
-1.219200
 23
-1.809079
 33
0.610089
 62
4
  0
3DFACE
  8
0
 10
-1.467700
 20
2.235796
 30
0.010004
 11
0.000031
 21
-5.353721
 31
0.000704
 12
0.000011
 22
3.729320
 32
0.000000
 13
0.000011
 23
3.729320
 33
0.000000
 62
4
  0
3DFACE
  8
0
 10
-3.936492
 20
3.150200
 30
0.018417
 11
-1.589602
 21
1.595716
 31
0.012271
 12
-3.631692
 22
3.455000
 32
0.018325
 13
-3.631692
 23
3.455000
 33
0.018325
 62
3
  0
3DFACE
  8
0
 10
-1.589602
 20
1.595716
 30
0.012271
 11
0.000031
 21
-5.353721
 31
0.000704
 12
-1.467700
 22
2.235796
 32
0.010004
 13
-1.467700
 23
2.235796
 33
0.010004
 62
4
  0
3DFACE
  8
0
 10
0.000031
 20
-5.353721
 30
0.000704
 11
-3.936492
 21
3.150200
 31
0.018417
 12
-3.936492
 22
2.723480
 32
0.018509
 13
-3.936492
 23
2.723480
 33
0.018509
 62
2
  0
3DFACE
  8
0
 10
-1.219200
 20
4.439321
 30
1.676889
 11
0.000011
 21
3.729320
 31
0.000000
 12
-0.304800
 22
2.427640
 32
0.396729
 13
-0.304800
 23
2.427640
 33
0.396729
 62
3
 0
ENDSEC
 0
EOF
